<svg id="Capa_1" enable-background="new 0 0 512 512" height="512" viewBox="0 0 512 512" width="512" xmlns="http://www.w3.org/2000/svg" xmlns:xlink="http://www.w3.org/1999/xlink"><linearGradient id="SVGID_1_" gradientUnits="userSpaceOnUse" x1="74.98" x2="437.018" y1="437.019" y2="74.981"><stop offset="0" stop-color="#ff2f2b"/><stop offset="1" stop-color="#ff9ceb"/></linearGradient><radialGradient id="SVGID_2_" cx="256" cy="256" gradientUnits="userSpaceOnUse" r="256"><stop offset="0" stop-color="#ff2f2b"/><stop offset="1" stop-color="#ff9ceb" stop-opacity="0"/></radialGradient><linearGradient id="lg1"><stop offset="0" stop-color="#ffb5d6"/><stop offset=".4183" stop-color="#ffdbeb"/><stop offset=".7836" stop-color="#fff5fa"/><stop offset="1" stop-color="#fff"/></linearGradient><linearGradient id="SVGID_3_" gradientUnits="userSpaceOnUse" x1="51.54" x2="673.661" xlink:href="#lg1" y1="359.18" y2="-262.94"/><linearGradient id="SVGID_4_" gradientUnits="userSpaceOnUse" x1="-24.263" x2="544.356" xlink:href="#lg1" y1="637.543" y2="68.924"/><linearGradient id="SVGID_5_" gradientUnits="userSpaceOnUse" x1="-31.658" x2="626.602" xlink:href="#lg1" y1="543.658" y2="-114.602"/><linearGradient id="SVGID_6_" gradientUnits="userSpaceOnUse" x1="-206.439" x2="556.699" xlink:href="#lg1" y1="598.432" y2="-164.706"/><linearGradient id="SVGID_7_" gradientUnits="userSpaceOnUse" x1="-777.496" x2="396.575" xlink:href="#lg1" y1="1409.503" y2="235.432"/><linearGradient id="SVGID_8_" gradientUnits="userSpaceOnUse" x1="-139.245" x2="437.382" xlink:href="#lg1" y1="651.245" y2="74.618"/><linearGradient id="lg2"><stop offset="0" stop-color="#ff3838"/><stop offset="1" stop-color="#ff9ceb"/></linearGradient><linearGradient id="SVGID_9_" gradientUnits="userSpaceOnUse" x1="100.482" x2="291.832" xlink:href="#lg2" y1="411.518" y2="220.168"/><linearGradient id="SVGID_10_" gradientUnits="userSpaceOnUse" x1="152.012" x2="264.831" xlink:href="#lg2" y1="360.003" y2="247.184"/><linearGradient id="lg3"><stop offset="0" stop-color="#ff79b1" stop-opacity="0"/><stop offset=".136" stop-color="#ff75aa" stop-opacity=".136"/><stop offset=".3367" stop-color="#ff6a96" stop-opacity=".337"/><stop offset=".5775" stop-color="#ff5875" stop-opacity=".578"/><stop offset=".8472" stop-color="#ff3f48" stop-opacity=".847"/><stop offset="1" stop-color="#ff2f2b"/></linearGradient><radialGradient id="SVGID_11_" cx="185.662" cy="326.338" gradientUnits="userSpaceOnUse" r="49.058" xlink:href="#lg3"/><linearGradient id="SVGID_12_" gradientUnits="userSpaceOnUse" x1="240.97" x2="432.318" xlink:href="#lg2" y1="271.03" y2="79.682"/><linearGradient id="SVGID_13_" gradientUnits="userSpaceOnUse" x1="292.44" x2="405.82" xlink:href="#lg2" y1="219.579" y2="106.199"/><radialGradient id="SVGID_14_" cx="326.338" cy="185.663" gradientUnits="userSpaceOnUse" r="49.058" xlink:href="#lg3"/><linearGradient id="SVGID_15_" gradientUnits="userSpaceOnUse" x1="169.514" x2="363.584" xlink:href="#lg2" y1="342.486" y2="148.416"/><linearGradient id="SVGID_16_" gradientUnits="userSpaceOnUse" x1="221.745" x2="336.454" xlink:href="#lg2" y1="290.272" y2="175.563"/><radialGradient id="SVGID_17_" cx="256" cy="256" gradientUnits="userSpaceOnUse" r="49.286" xlink:href="#lg3"/><g><circle cx="256" cy="256" fill="url(#SVGID_1_)" r="256"/><circle cx="256" cy="256" fill="url(#SVGID_2_)" r="256"/><path d="m143.5 96.572c-24.779.942-45.986 22.149-46.929 46.928-2.678 75-2.678 150 0 225 .942 24.779 22.15 45.988 46.929 46.928 13.055.466 26.109.852 39.164 1.155-2.445-107.056-2.445-214.112 0-321.167-13.055.304-26.109.689-39.164 1.156z" fill="url(#SVGID_3_)"/><path d="m368.5 96.572c-13.055-.466-26.109-.852-39.164-1.155 2.445 107.056 2.445 214.112 0 321.167 13.055-.304 26.109-.689 39.164-1.155 24.781-.942 45.988-22.149 46.928-46.928 2.679-75 2.679-150 0-225-.941-24.781-22.149-45.989-46.928-46.929z" fill="url(#SVGID_4_)"/><path d="m375.785 369.725c2.013-75.817 2.013-151.633 0-227.45-.722-25.067-21.668-46.243-46.449-46.859-48.891-1.138-97.782-1.138-146.673 0-24.78.617-45.728 21.793-46.449 46.859-2.013 75.817-2.013 151.633 0 227.45.723 25.067 21.668 46.242 46.449 46.859 48.891 1.138 97.782 1.138 146.673 0 24.782-.618 45.728-21.794 46.449-46.859z" fill="url(#SVGID_5_)"/><path d="m94.562 256c-.023 39.772 16.016 76.361 41.431 105.056 19.423-34.522 39.712-69.667 60.212-105.056-20.5-35.389-40.789-70.534-60.212-105.056-25.414 28.697-41.455 65.284-41.431 105.056z" fill="url(#SVGID_6_)"/><path d="m376.007 150.944c-19.423 34.522-39.712 69.667-60.212 105.056 20.5 35.389 40.789 70.534 60.212 105.056 25.414-28.694 41.455-65.284 41.431-105.056.022-39.773-16.017-76.361-41.431-105.056z" fill="url(#SVGID_7_)"/><path d="m256 94.563c-47.054-.03-89.815 22.472-120.007 56.381-1.717 70.037-1.717 140.075 0 210.113 30.191 33.909 72.952 56.411 120.007 56.381 47.055.03 89.815-22.472 120.007-56.381 1.718-70.037 1.718-140.075 0-210.113-30.191-33.909-72.952-56.411-120.007-56.381z" fill="url(#SVGID_8_)"/><path d="m216.27 326.561c.073 16.962-13.455 30.619-30.256 30.381-16.799-.243-30.713-14.156-30.956-30.956-.239-16.803 13.42-30.328 30.382-30.256 16.964.08 30.75 13.866 30.83 30.831z" fill="url(#SVGID_9_)"/><path d="m193.458 341.722c-16.848-.186-30.741-14.059-30.918-30.885-.018-1.868.142-3.69.451-5.462-5.023 5.397-8.04 12.624-7.933 20.612.242 16.801 14.158 30.714 30.956 30.956 14.944.211 27.275-10.561 29.787-24.88-5.553 6.021-13.489 9.751-22.343 9.659z" fill="url(#SVGID_10_)"/><path d="m216.27 326.561c.073 16.962-13.455 30.619-30.256 30.381-16.799-.243-30.713-14.156-30.956-30.956-.239-16.803 13.42-30.328 30.382-30.256 16.964.08 30.75 13.866 30.83 30.831z" fill="url(#SVGID_11_)"/><path d="m356.942 186.014c.238 16.801-13.42 30.33-30.382 30.256-16.964-.08-30.75-13.866-30.831-30.831-.074-16.963 13.455-30.618 30.256-30.381 16.801.242 30.714 14.157 30.957 30.956z" fill="url(#SVGID_12_)"/><path d="m334.13 201.026c-16.945-.128-30.737-13.93-30.856-30.885-.016-1.879.147-3.715.455-5.497-4.997 5.432-8.04 12.741-8 20.794.08 16.965 13.868 30.751 30.831 30.832 15.08.07 27.547-10.634 29.952-24.803-5.519 5.936-13.489 9.629-22.382 9.559z" fill="url(#SVGID_13_)"/><path d="m356.942 186.014c.238 16.801-13.42 30.33-30.382 30.256-16.964-.08-30.75-13.866-30.831-30.831-.074-16.963 13.455-30.618 30.256-30.381 16.801.242 30.714 14.157 30.957 30.956z" fill="url(#SVGID_14_)"/><path d="m286.75 256c-.002 16.964-13.79 30.746-30.75 30.75-16.961-.006-30.747-13.787-30.75-30.75.002-16.96 13.788-30.749 30.75-30.75 16.961.002 30.748 13.79 30.75 30.75z" fill="url(#SVGID_15_)"/><path d="m263.686 271.374c-16.977.001-30.754-13.773-30.743-30.742.002-1.882.18-3.72.507-5.51-5.084 5.485-8.201 12.819-8.199 20.877.002 16.964 13.788 30.746 30.75 30.75 15.081-.001 27.643-10.906 30.247-25.242-5.62 6.061-13.648 9.865-22.562 9.867z" fill="url(#SVGID_16_)"/><path d="m286.75 256c-.002 16.964-13.79 30.746-30.75 30.75-16.961-.006-30.747-13.787-30.75-30.75.002-16.96 13.788-30.749 30.75-30.75 16.961.002 30.748 13.79 30.75 30.75z" fill="url(#SVGID_17_)"/></g></svg>