<svg id="Capa_1" enable-background="new 0 0 512 512" height="512" viewBox="0 0 512 512" width="512" xmlns="http://www.w3.org/2000/svg" xmlns:xlink="http://www.w3.org/1999/xlink"><linearGradient id="SVGID_1_" gradientUnits="userSpaceOnUse" x1="74.98" x2="437.019" y1="437.019" y2="74.98"><stop offset=".0056" stop-color="#560dff"/><stop offset=".3276" stop-color="#615eff"/><stop offset=".6521" stop-color="#6aaaff"/><stop offset=".8846" stop-color="#71daff"/><stop offset="1" stop-color="#73ecff"/></linearGradient><radialGradient id="SVGID_2_" cx="581.451" cy="370.606" gradientUnits="userSpaceOnUse" r=".676"><stop offset="0" stop-color="#6b23ea" stop-opacity=".5"/><stop offset=".0207" stop-color="#682ce9" stop-opacity=".49"/><stop offset=".1376" stop-color="#5658e5" stop-opacity=".431"/><stop offset=".26" stop-color="#477de2" stop-opacity=".37"/><stop offset=".3864" stop-color="#3b9ce0" stop-opacity=".307"/><stop offset=".5182" stop-color="#31b4de" stop-opacity=".241"/><stop offset=".6578" stop-color="#2ac5dc" stop-opacity=".171"/><stop offset=".8102" stop-color="#26cfdb" stop-opacity=".095"/><stop offset="1" stop-color="#25d2db" stop-opacity="0"/></radialGradient><linearGradient id="SVGID_3_" gradientUnits="userSpaceOnUse" x1="61.312" x2="429.513" y1="398.964" y2="30.763"><stop offset="0" stop-color="#560dff"/><stop offset="1" stop-color="#73ecff"/></linearGradient><linearGradient id="lg1"><stop offset="0" stop-color="#73ecff"/><stop offset="1" stop-color="#fff"/></linearGradient><linearGradient id="SVGID_4_" gradientUnits="userSpaceOnUse" x1="-506.268" x2="366.234" xlink:href="#lg1" y1="1014.212" y2="141.71"/><linearGradient id="lg2"><stop offset="0" stop-color="#43dcc7"/><stop offset=".0195" stop-color="#4ae0ca" stop-opacity=".978"/><stop offset=".0955" stop-color="#60ebd2" stop-opacity=".892"/><stop offset=".1852" stop-color="#71f4d8" stop-opacity=".791"/><stop offset=".296" stop-color="#7cfadd" stop-opacity=".665"/><stop offset=".4516" stop-color="#83fedf" stop-opacity=".489"/><stop offset=".8837" stop-color="#85ffe0" stop-opacity="0"/></linearGradient><linearGradient id="SVGID_5_" gradientTransform="matrix(-1 0 0 1 627 0)" gradientUnits="userSpaceOnUse" x1="314.385" x2="415.921" xlink:href="#lg2" y1="236.983" y2="264.189"/><linearGradient id="SVGID_6_" gradientTransform="matrix(-1 0 0 1 627 0)" gradientUnits="userSpaceOnUse" x1="438.273" x2="502.875" xlink:href="#lg2" y1="243.372" y2="260.682"/><linearGradient id="lg3"><stop offset="0" stop-color="#389fff"/><stop offset=".1209" stop-color="#45affa"/><stop offset=".5726" stop-color="#73e9e7"/><stop offset=".79" stop-color="#85ffe0"/><stop offset=".881" stop-color="#9dffe6"/><stop offset="1" stop-color="#c2fff0"/></linearGradient><linearGradient id="SVGID_7_" gradientUnits="userSpaceOnUse" x1="124.748" x2="389.686" xlink:href="#lg3" y1="400.419" y2="135.481"/><linearGradient id="SVGID_8_" gradientTransform="matrix(0 1 -1 0 517.929 -34.071)" gradientUnits="userSpaceOnUse" x1="473.802" x2="208.832" xlink:href="#lg3" y1="457.146" y2="192.176"/><linearGradient id="SVGID_9_" gradientTransform="matrix(0 1 -1 0 517.929 -34.071)" gradientUnits="userSpaceOnUse" x1="383.63" x2="241.276" xlink:href="#lg3" y1="497.863" y2="355.508"/><linearGradient id="SVGID_10_" gradientTransform="matrix(0 1 -1 0 517.929 -34.071)" gradientUnits="userSpaceOnUse" x1="384.073" x2="241.073" xlink:href="#lg3" y1="221.645" y2="78.645"/><linearGradient id="SVGID_11_" gradientTransform="matrix(-.966 .259 .259 .966 508.302 -66.919)" gradientUnits="userSpaceOnUse" x1="326.386" x2="184.249" xlink:href="#lg1" y1="463.372" y2="381.31"/><linearGradient id="SVGID_12_" gradientUnits="userSpaceOnUse" x1="59.678" x2="443.182" xlink:href="#lg3" y1="268.61" y2="-114.894"/><radialGradient id="SVGID_13_" cx="255.314" cy="146.019" gradientUnits="userSpaceOnUse" r="70.7"><stop offset="0" stop-color="#6b23ea"/><stop offset=".2291" stop-color="#5658e5" stop-opacity=".771"/><stop offset=".486" stop-color="#418ce1" stop-opacity=".514"/><stop offset=".7095" stop-color="#32b2de" stop-opacity=".291"/><stop offset=".8883" stop-color="#28c9dc" stop-opacity=".112"/><stop offset="1" stop-color="#25d2db" stop-opacity="0"/></radialGradient><linearGradient id="SVGID_14_" gradientTransform="matrix(.966 .259 -.259 .966 43.698 -66.919)" gradientUnits="userSpaceOnUse" x1="150.672" x2="290.512" xlink:href="#lg1" y1="608.681" y2="366.471"/><linearGradient id="SVGID_15_" gradientUnits="userSpaceOnUse" x1="-447.78" x2="523.597" xlink:href="#lg3" y1="914.359" y2="-57.018"/><linearGradient id="SVGID_16_" gradientUnits="userSpaceOnUse" x1="-342.469" x2="647.406" y1="982.538" y2="-7.338"><stop offset="0" stop-color="#389fff"/><stop offset=".1209" stop-color="#45affa"/><stop offset=".5726" stop-color="#73e9e7"/><stop offset=".79" stop-color="#85ffe0"/><stop offset=".8743" stop-color="#9dffe6"/><stop offset=".9844" stop-color="#c2fff0"/></linearGradient><linearGradient id="SVGID_17_" gradientUnits="userSpaceOnUse" x1="-111.815" x2="540.438" xlink:href="#lg3" y1="574.899" y2="-77.354"/><radialGradient id="SVGID_18_" cx="256" cy="143.898" gradientUnits="userSpaceOnUse" r="110.386"><stop offset="0" stop-color="#6b23ea"/><stop offset=".0295" stop-color="#6630e9" stop-opacity=".971"/><stop offset=".142" stop-color="#555ae5" stop-opacity=".858"/><stop offset=".2603" stop-color="#467fe2" stop-opacity=".74"/><stop offset=".3831" stop-color="#3a9de0" stop-opacity=".617"/><stop offset=".512" stop-color="#31b5de" stop-opacity=".488"/><stop offset=".6499" stop-color="#2ac5dc" stop-opacity=".35"/><stop offset=".8026" stop-color="#26cfdb" stop-opacity=".197"/><stop offset="1" stop-color="#25d2db" stop-opacity="0"/></radialGradient><linearGradient id="SVGID_19_" gradientTransform="matrix(.966 .259 -.259 .966 43.698 -66.919)" gradientUnits="userSpaceOnUse" x1="56.214" x2="291.104" xlink:href="#lg1" y1="642.357" y2="235.516"/><linearGradient id="SVGID_20_" gradientTransform="matrix(.966 .259 -.259 .966 43.698 -66.919)" gradientUnits="userSpaceOnUse" x1="164.362" x2="281.843" xlink:href="#lg3" y1="455.016" y2="251.533"/><linearGradient id="SVGID_21_" gradientTransform="matrix(-.966 .259 .259 .966 508.302 -66.919)" gradientUnits="userSpaceOnUse" x1="595.065" x2="176.207" xlink:href="#lg1" y1="538.735" y2="296.907"/><linearGradient id="SVGID_22_" gradientTransform="matrix(-.966 .259 .259 .966 508.302 -66.919)" gradientUnits="userSpaceOnUse" x1="362.263" x2="152.774" xlink:href="#lg3" y1="404.462" y2="283.513"/><linearGradient id="SVGID_23_" gradientUnits="userSpaceOnUse" x1="-218.462" x2="373.619" xlink:href="#lg1" y1="619.347" y2="27.266"/><linearGradient id="SVGID_25_" gradientUnits="userSpaceOnUse" x1="132.284" x2="386.273" xlink:href="#lg3" y1="268.35" y2="14.361"/><g><circle cx="256" cy="256" fill="url(#SVGID_1_)" r="256"/><circle cx="256" cy="256" fill="url(#SVGID_2_)" r="256"/><path d="m301.952 158.177c-30.635-.269-61.269-.269-91.904 0-.128 30.675-.185 61.35-.171 92.026 30.749.03 61.497.03 92.246 0 .014-30.676-.043-61.351-.171-92.026z" fill="url(#SVGID_3_)"/><path d="m394.348 259.476c-92.232.551-184.464.551-276.696 0-.015-5.013-.023-10.026-.026-15.038 92.249.103 184.499.103 276.748 0-.003 5.013-.011 10.026-.026 15.038z" fill="url(#SVGID_4_)"/><path d="m194.512 259.808c40.992.109 81.984.109 122.976 0 .006-5.103.01-10.206.012-15.309-41 .02-81.999.02-122.999 0 .001 5.104.004 10.206.011 15.309z" fill="url(#SVGID_5_)"/><path d="m117.652 259.476c25.62.153 51.24.264 76.86.332-.006-5.103-.01-10.206-.012-15.308-25.625-.013-51.25-.033-76.874-.062.003 5.013.011 10.026.026 15.038z" fill="url(#SVGID_6_)"/><path d="m248.314 259.889c.001 5.125.002 10.249.003 15.374.001 4.245 3.441 7.69 7.683 7.69 4.241 0 7.681-3.445 7.683-7.69.001-5.125.003-10.249.003-15.374-5.124.001-10.248.001-15.372 0z" fill="url(#SVGID_7_)"/><path d="m256 221.452c-4.245 0-7.687 3.443-7.687 7.688-.001 10.249-.001 20.499.001 30.748.001 4.246 3.442 7.689 7.686 7.689s7.685-3.443 7.686-7.689c.002-10.249.002-20.498.001-30.748 0-4.245-3.442-7.688-7.687-7.688z" fill="url(#SVGID_8_)"/><path d="m109.966 259.429c-.015-5-.025-10-.027-15-.002-4.14 3.442-7.503 7.688-7.51s7.685 3.363 7.687 7.527c.003 5.025.011 10.05.024 15.075.011 4.164-3.416 7.512-7.66 7.475s-7.699-3.427-7.712-7.567z" fill="url(#SVGID_9_)"/><path d="m386.662 259.521c.014-5.025.022-10.05.024-15.075.002-4.164 3.441-7.535 7.687-7.527s7.69 3.371 7.688 7.51c-.003 5-.012 10-.027 15-.013 4.14-3.469 7.529-7.712 7.566-4.244.038-7.671-3.309-7.66-7.474z" fill="url(#SVGID_10_)"/><path d="m337.508 423.31c3.662-6.354 7.331-12.703 11.008-19.045 3.059 12.134 6.071 24.235 9.031 36.299.98 3.995-1.499 8.281-5.524 9.565s-8.083-.941-9.076-4.96c-1.796-7.274-3.609-14.561-5.439-21.859z" fill="url(#SVGID_11_)"/><path d="m271.223 106.176c-10.149-.049-20.297-.049-30.446 0 .046-20.495.103-40.989.17-61.483.033-8.487 6.774-15.428 15.052-15.428s15.019 6.94 15.052 15.428c.069 20.494.126 40.989.172 61.483z" fill="url(#SVGID_12_)"/><path d="m271.223 106.176c-10.149-.049-20.297-.049-30.446 0 .046-20.495.103-40.989.17-61.483.033-8.487 6.774-15.428 15.052-15.428s15.019 6.94 15.052 15.428c.069 20.494.126 40.989.172 61.483z" fill="url(#SVGID_13_)"/><path d="m174.492 423.31c-3.662-6.354-7.331-12.703-11.007-19.045-3.059 12.134-6.071 24.235-9.031 36.299-.98 3.995 1.499 8.281 5.524 9.565s8.084-.941 9.076-4.96c1.795-7.274 3.608-14.561 5.438-21.859z" fill="url(#SVGID_14_)"/><path d="m143.623 357.54c-1.474 5.73-1.175 11.836.847 17.572 5.12 14.526 10.248 29.095 15.367 43.698 4.889 1.511 9.774 3.011 14.655 4.5 23.178-92.437 48.977-186.623 74.121-280.716-14.77-3.954-29.52-7.831-44.248-11.603-20.76 76.24-41.588 152.084-60.742 226.549z" fill="url(#SVGID_15_)"/><path d="m368.377 357.54c-13.881-53.965-28.641-108.654-43.617-163.693-13.155 9.96-26.343 20.012-39.543 30.1 17.971 66.898 35.795 133.574 52.291 199.363 4.881-1.489 9.767-2.989 14.655-4.5 5.119-14.603 10.246-29.173 15.367-43.698 2.022-5.736 2.321-11.842.847-17.572z" fill="url(#SVGID_16_)"/><path d="m324.76 193.847c-5.689-20.908-11.41-41.867-17.125-62.857-14.728 3.772-29.478 7.649-44.248 11.603 7.249 27.125 14.551 54.257 21.83 81.353 16.057-5.911 29.81-16.534 39.543-30.099z" fill="url(#SVGID_17_)"/><path d="m368.377 357.54c-19.154-74.466-39.982-150.309-60.742-226.55-34.423-.455-68.846-.455-103.269 0-20.76 76.241-41.588 152.084-60.742 226.55-1.474 5.73-1.175 11.836.847 17.572 5.12 14.526 10.248 29.095 15.367 43.698 4.889 1.511 9.774 3.011 14.655 4.5 19.566-78.03 40.999-157.306 62.329-236.721 12.786-.031 25.572-.031 38.357 0 21.331 79.415 42.764 158.692 62.329 236.721 4.881-1.489 9.767-2.989 14.655-4.5 5.119-14.603 10.246-29.173 15.367-43.698 2.022-5.736 2.321-11.842.847-17.572z" fill="url(#SVGID_18_)"/><path d="m195.2 342.641c-4.271 16.292-20.866 25.629-37.183 20.798-16.317-4.837-26.27-21.714-22.081-37.71 4.189-16.001 20.968-25.36 37.361-20.818 16.399 4.546 26.168 21.445 21.903 37.73z" fill="url(#SVGID_19_)"/><path d="m180.4 338.451c-2.122 8.115-10.444 12.774-18.616 10.399-8.172-2.376-13.119-10.819-11.017-18.861 2.102-8.043 10.469-12.707 18.66-10.404 8.193 2.302 13.094 10.751 10.973 18.866z" fill="url(#SVGID_20_)"/><path d="m316.8 342.641c4.271 16.292 20.866 25.629 37.183 20.798 16.317-4.837 26.27-21.714 22.081-37.71-4.188-16.001-20.968-25.36-37.361-20.818-16.399 4.546-26.168 21.445-21.903 37.73z" fill="url(#SVGID_21_)"/><path d="m331.6 338.451c2.122 8.115 10.443 12.774 18.616 10.399 8.172-2.376 13.119-10.819 11.017-18.861-2.102-8.043-10.469-12.707-18.66-10.404-8.193 2.302-13.094 10.751-10.973 18.866z" fill="url(#SVGID_22_)"/><path d="m309.54 144.897c.189 29.585-23.838 53.467-53.54 53.493-29.702-.026-53.73-23.908-53.54-53.493.209-29.575 24.237-54.117 53.54-54.132 29.304.015 53.331 24.558 53.54 54.132z" fill="url(#SVGID_23_)"/><path d="m309.54 144.897c.189 29.585-23.838 53.467-53.54 53.493-29.702-.026-53.73-23.908-53.54-53.493.209-29.575 24.237-54.117 53.54-54.132 29.304.015 53.331 24.558 53.54 54.132z" fill="url(#SVGID_23_)"/><path d="m278.946 144.636c.036 12.727-10.242 23.001-22.946 23.004-12.704-.003-22.982-10.277-22.946-23.004.037-12.725 10.315-23.121 22.946-23.121s22.909 10.395 22.946 23.121z" fill="url(#SVGID_25_)"/></g></svg>