<svg id="Capa_1" enable-background="new 0 0 512 512" height="512" viewBox="0 0 512 512" width="512" xmlns="http://www.w3.org/2000/svg" xmlns:xlink="http://www.w3.org/1999/xlink"><linearGradient id="SVGID_1_" gradientUnits="userSpaceOnUse" x1="74.98" x2="437.019" y1="437.019" y2="74.98"><stop offset="0" stop-color="#ff4d5e"/><stop offset="1" stop-color="#fff200"/></linearGradient><radialGradient id="SVGID_2_" cx="256" cy="255.999" gradientUnits="userSpaceOnUse" r="256"><stop offset="0" stop-color="#ff4d5e" stop-opacity=".4"/><stop offset=".1914" stop-color="#ff7249" stop-opacity=".323"/><stop offset=".5782" stop-color="#ffb622" stop-opacity=".169"/><stop offset=".858" stop-color="#ffe209" stop-opacity=".057"/><stop offset="1" stop-color="#fff200" stop-opacity="0"/></radialGradient><linearGradient id="lg1"><stop offset="0" stop-color="#ff3838"/><stop offset="1" stop-color="#fff200"/></linearGradient><linearGradient id="SVGID_3_" gradientUnits="userSpaceOnUse" x1="106.871" x2="939.136" xlink:href="#lg1" y1="405.128" y2="-427.137"/><linearGradient id="lg2"><stop offset="0" stop-color="#ffcb00"/><stop offset=".5" stop-color="#fffa78"/><stop offset="1" stop-color="#feffd6"/></linearGradient><linearGradient id="SVGID_4_" gradientUnits="userSpaceOnUse" x1="223.512" x2="799.027" xlink:href="#lg2" y1="497.575" y2="-77.941"/><linearGradient id="lg3"><stop offset="0" stop-color="#fffa78"/><stop offset=".458" stop-color="#fffcb4"/><stop offset="1" stop-color="#fff"/></linearGradient><linearGradient id="SVGID_5_" gradientUnits="userSpaceOnUse" x1="143.375" x2="383.496" xlink:href="#lg3" y1="542.325" y2="302.205"/><linearGradient id="SVGID_6_" gradientUnits="userSpaceOnUse" x1="233.923" x2="452.839" xlink:href="#lg3" y1="384.75" y2="165.834"/><linearGradient id="SVGID_7_" gradientUnits="userSpaceOnUse" x1="-8.104" x2="565.633" xlink:href="#lg1" y1="590.224" y2="16.487"/><linearGradient id="SVGID_8_" gradientTransform="matrix(-1 0 0 1 472 0)" gradientUnits="userSpaceOnUse" x1="345.367" x2="-230.068" xlink:href="#lg2" y1="471.571" y2="-103.864"/><linearGradient id="SVGID_9_" gradientTransform="matrix(-1 0 0 1 472 0)" gradientUnits="userSpaceOnUse" x1="498.101" x2="168.23" xlink:href="#lg1" y1="460.416" y2="130.544"/><linearGradient id="SVGID_10_" gradientTransform="matrix(-1 0 0 1 472 0)" gradientUnits="userSpaceOnUse" x1="508.123" x2="177.053" xlink:href="#lg1" y1="518.485" y2="187.415"/><linearGradient id="SVGID_11_" gradientTransform="matrix(-1 0 0 1 472 0)" gradientUnits="userSpaceOnUse" x1="395.949" x2="-185.071" xlink:href="#lg2" y1="255.422" y2="-325.598"/><linearGradient id="SVGID_12_" gradientTransform="matrix(-1 0 0 1 472 0)" gradientUnits="userSpaceOnUse" x1="452.837" x2="-128.115" xlink:href="#lg2" y1="359.57" y2="-221.383"/><linearGradient id="SVGID_13_" gradientTransform="matrix(-1 0 0 1 472 0)" gradientUnits="userSpaceOnUse" x1="341.181" x2="115.735" xlink:href="#lg3" y1="363.156" y2="137.71"/><linearGradient id="SVGID_14_" gradientUnits="userSpaceOnUse" x1="118.985" x2="608.24" xlink:href="#lg2" y1="341.042" y2="-148.214"/><linearGradient id="SVGID_15_" gradientUnits="userSpaceOnUse" x1="209.219" x2="689.922" xlink:href="#lg2" y1="287.254" y2="-193.449"/><linearGradient id="SVGID_16_" gradientUnits="userSpaceOnUse" x1="142.858" x2="628.492" xlink:href="#lg3" y1="189.68" y2="-295.954"/><linearGradient id="SVGID_17_" gradientUnits="userSpaceOnUse" x1="-60.725" x2="423.157" xlink:href="#lg3" y1="443.358" y2="-40.523"/><linearGradient id="SVGID_18_" gradientUnits="userSpaceOnUse" x1="-115.816" x2="387.149" xlink:href="#lg1" y1="413.203" y2="-89.762"/><linearGradient id="SVGID_19_" gradientUnits="userSpaceOnUse" x1="-121.805" x2="379.359" xlink:href="#lg1" y1="468.884" y2="-32.279"/><g><circle cx="256" cy="256" fill="url(#SVGID_1_)" r="256"/><circle cx="256" cy="256" fill="url(#SVGID_2_)" r="256"/><path d="m240.743 47.739c-50.156 30.464-101.334 61.999-152.851 93.071-9.422 5.689-15.367 15.678-15.565 26.291-1.103 59.266-1.103 118.532 0 177.798.198 10.613 6.143 20.602 15.565 26.291 51.517 31.072 102.695 62.608 152.851 93.072 9.434 5.734 21.08 5.734 30.514 0 50.156-30.464 101.334-62 152.851-93.072 9.422-5.689 15.368-15.678 15.565-26.291 1.103-59.266 1.103-118.532 0-177.798-.197-10.613-6.143-20.602-15.565-26.291-51.517-31.071-102.695-62.607-152.851-93.071-9.435-5.734-21.08-5.734-30.514 0z" fill="url(#SVGID_3_)"/><path d="m355.717 309.914c19.254-11.404 38.527-22.757 57.78-33.979 5.132-2.989 11.591.608 11.562 6.431-.112 22.396-.368 44.792-.767 67.188-.047 2.665-1.525 5.167-3.88 6.578-19.317 11.578-38.597 23.23-57.803 34.875-5.119 3.108-11.464-.434-11.386-6.347.307-22.713.533-45.426.678-68.14.017-2.703 1.467-5.216 3.816-6.606z" fill="url(#SVGID_4_)"/><path d="m267.399 362.441c19.116-11.368 38.305-22.809 57.531-34.244 5.128-3.047 11.558.581 11.516 6.5-.158 22.758-.383 45.516-.678 68.273-.036 2.708-1.49 5.24-3.821 6.657-19.117 11.614-38.141 23.178-57.037 34.61-5.034 3.05-11.366-.629-11.361-6.579.034-22.864.063-45.727.084-68.591.005-2.72 1.435-5.239 3.766-6.626z" fill="url(#SVGID_5_)"/><path d="m355.741 206.365c19.132-11.117 38.207-22.1 57.191-32.87 5.06-2.869 11.56.89 11.646 6.714.323 22.396.503 44.793.54 67.189.005 2.665-1.432 5.13-3.775 6.484-19.215 11.105-38.465 22.367-57.715 33.705-5.133 3.026-11.583-.61-11.568-6.523.06-22.716.039-45.432-.064-68.147-.011-2.703 1.412-5.196 3.745-6.552z" fill="url(#SVGID_6_)"/><path d="m267.47 258.16c19.219-11.335 38.437-22.661 57.618-33.896 5.113-2.995 11.59.71 11.603 6.63.05 22.758.032 45.515-.054 68.273-.01 2.708-1.458 5.222-3.804 6.612-19.24 11.393-38.46 22.819-57.626 34.195-5.109 3.034-11.546-.653-11.544-6.602.015-22.863.023-45.727.024-68.59 0-2.722 1.438-5.239 3.783-6.622z" fill="url(#SVGID_7_)"/><path d="m244.601 362.444c-19.116-11.368-38.305-22.809-57.531-34.244-5.127-3.047-11.558.581-11.516 6.5.158 22.755.383 45.51.677 68.264.035 2.708 1.489 5.24 3.82 6.656 19.117 11.616 38.141 23.182 57.037 34.616 5.035 3.051 11.367-.628 11.361-6.579-.034-22.863-.063-45.725-.084-68.588-.002-2.719-1.433-5.239-3.764-6.625z" fill="url(#SVGID_8_)"/><path d="m86.941 282.368c.112 22.395.368 44.79.767 67.185.047 2.665 1.524 5.166 3.88 6.578 11.396 6.831 22.78 13.687 34.142 20.552 4.834-14.111 9.742-28.27 14.707-42.47-5.25-14.335-10.48-28.637-15.675-42.9-8.754-5.148-17.508-10.276-26.259-15.377-5.132-2.988-11.591.608-11.562 6.432z" fill="url(#SVGID_9_)"/><path d="m149.391 391.007c5.121 3.108 11.464-.434 11.386-6.347-.307-22.71-.533-45.421-.677-68.131-.018-2.702-1.468-5.216-3.815-6.606-10.504-6.222-21.013-12.429-31.521-18.608.146 28.457.469 56.913.968 85.37 7.896 4.771 15.783 9.547 23.659 14.322z" fill="url(#SVGID_10_)"/><path d="m99.068 173.496c-5.06-2.87-11.56.89-11.646 6.714-.323 22.393-.503 44.786-.54 67.179-.005 2.665 1.433 5.129 3.775 6.484 11.336 6.552 22.684 13.158 34.037 19.802 5.088-14.211 10.224-28.465 15.392-42.754-5.078-14.246-10.11-28.454-15.082-42.616-8.661-4.976-17.308-9.915-25.936-14.809z" fill="url(#SVGID_11_)"/><path d="m159.939 281.054c-.06-22.712-.038-45.425.065-68.137.013-2.703-1.411-5.196-3.745-6.551-10.437-6.064-20.857-12.089-31.254-18.061-.28 28.457-.383 56.914-.31 85.37 7.891 4.618 15.784 9.254 23.677 13.903 5.133 3.024 11.583-.611 11.567-6.524z" fill="url(#SVGID_12_)"/><path d="m244.53 258.16c-19.219-11.335-38.437-22.661-57.618-33.896-5.113-2.995-11.589.71-11.603 6.63-.05 22.758-.032 45.515.054 68.273.01 2.708 1.458 5.222 3.804 6.612 19.24 11.393 38.46 22.819 57.626 34.195 5.11 3.034 11.547-.653 11.544-6.602-.015-22.863-.023-45.727-.024-68.59 0-2.722-1.439-5.239-3.783-6.622z" fill="url(#SVGID_13_)"/><path d="m194.066 197.397c19.39-11.503 38.751-23.017 58.047-34.46 2.399-1.423 5.376-1.423 7.775 0 19.295 11.443 38.656 22.958 58.047 34.46 5.046 2.993 5.074 10.261.046 13.206-19.325 11.321-38.696 22.738-58.075 34.168-2.409 1.421-5.4 1.421-7.81 0-19.379-11.43-38.75-22.847-58.075-34.168-5.029-2.945-5-10.212.045-13.206z" fill="url(#SVGID_14_)"/><path d="m282.178 145.142c19.217-11.346 38.348-22.578 57.357-33.612 2.364-1.372 5.319-1.316 7.723.144 19.326 11.736 38.737 23.5 58.196 35.212 5.064 3.049 5.195 10.209.224 13.028-19.1 10.838-38.302 21.898-57.57 33.097-2.396 1.393-5.381 1.37-7.794-.063-19.406-11.522-38.783-23.072-58.097-34.569-5.024-2.99-5.038-10.284-.039-13.237z" fill="url(#SVGID_15_)"/><path d="m259.824 58.644c-2.36-1.425-5.288-1.425-7.647 0-18.983 11.454-38.107 23.064-57.336 34.747-5.003 3.042-5.091 10.309-.138 13.206 8.318 4.869 16.659 9.773 25.02 14.705 12.093-.086 24.186-.13 36.278-.13 12.093-14.407 24.109-28.771 36.011-43.05-10.77-6.532-21.502-13.03-32.188-19.478z" fill="url(#SVGID_16_)"/><path d="m317.159 93.391c-8.404-5.106-16.788-10.198-25.149-15.269-23.906 14.165-48.027 28.614-72.289 43.18 10.769 6.352 21.572 12.749 32.401 19.177 2.392 1.419 5.363 1.419 7.755 0 19.236-11.419 38.389-22.74 57.42-33.882 4.954-2.897 4.865-10.164-.138-13.206z" fill="url(#SVGID_17_)"/><path d="m164.736 111.679c-19.325 11.733-38.735 23.496-58.193 35.205-5.064 3.049-5.197 10.209-.224 13.028 8.349 4.737 16.717 9.517 25.101 14.332 12.166-.181 24.331-.335 36.497-.463 12.281-14.453 24.545-28.947 36.755-43.44-10.772-6.321-21.513-12.594-32.214-18.805-2.362-1.373-5.32-1.317-7.722.143z" fill="url(#SVGID_18_)"/><path d="m163.886 193.006c2.395 1.392 5.382 1.37 7.794-.063 19.404-11.521 38.782-23.071 58.094-34.568 5.025-2.99 5.039-10.284.039-13.237-8.397-4.957-16.779-9.893-25.141-14.799-24.316 14.607-48.758 29.297-73.252 43.903 10.797 6.202 21.621 12.461 32.466 18.764z" fill="url(#SVGID_19_)"/></g></svg>