<svg id="Capa_1" enable-background="new 0 0 512 512" height="512" viewBox="0 0 512 512" width="512" xmlns="http://www.w3.org/2000/svg" xmlns:xlink="http://www.w3.org/1999/xlink"><linearGradient id="SVGID_1_" gradientUnits="userSpaceOnUse" x1="74.98" x2="437.019" y1="437.019" y2="74.98"><stop offset="0" stop-color="#008a4c"/><stop offset="1" stop-color="#d3ff33"/></linearGradient><radialGradient id="SVGID_2_" cx="256" cy="256" gradientUnits="userSpaceOnUse" r="256"><stop offset="0" stop-color="#008a4c" stop-opacity=".4"/><stop offset=".0992" stop-color="#078e4b" stop-opacity=".36"/><stop offset=".2469" stop-color="#1c9949" stop-opacity=".301"/><stop offset=".4249" stop-color="#3dac45" stop-opacity=".23"/><stop offset=".6266" stop-color="#6bc53f" stop-opacity=".149"/><stop offset=".8453" stop-color="#a5e638" stop-opacity=".062"/><stop offset="1" stop-color="#d3ff33" stop-opacity="0"/></radialGradient><linearGradient id="lg1"><stop offset="0" stop-color="#ddff59"/><stop offset="1" stop-color="#fff"/></linearGradient><linearGradient id="SVGID_3_" gradientUnits="userSpaceOnUse" x1="-413.42" x2="483.512" xlink:href="#lg1" y1="925.42" y2="28.489"/><linearGradient id="lg2"><stop offset="0" stop-color="#00aa45"/><stop offset=".7542" stop-color="#d3ff33"/><stop offset="1" stop-color="#f9fcca"/></linearGradient><linearGradient id="SVGID_4_" gradientUnits="userSpaceOnUse" x1="-377.718" x2="733.088" xlink:href="#lg2" y1="841.832" y2="-198.644"/><linearGradient id="SVGID_5_" gradientUnits="userSpaceOnUse" x1="-370.274" x2="740.533" xlink:href="#lg2" y1="850.384" y2="-190.092"/><linearGradient id="SVGID_6_" gradientUnits="userSpaceOnUse" x1="-699.555" x2="456.994" xlink:href="#lg1" y1="1217.352" y2="54.607"/><linearGradient id="SVGID_7_" gradientUnits="userSpaceOnUse" x1="-700.708" x2="455.834" xlink:href="#lg1" y1="1217.155" y2="54.417"/><g><circle cx="256" cy="256" fill="url(#SVGID_1_)" r="256"/><circle cx="256" cy="256" fill="url(#SVGID_2_)" r="256"/><path d="m471.225 240.975c-4.245-.015-7.675 3.342-7.668 7.501-30.749-.048-61.498-.086-92.247-.112-.003-4.218-3.452-7.643-7.697-7.65-4.245-.006-7.681 3.411-7.678 7.638-30.749-.023-61.498-.036-92.247-.038-.002-30.749-.014-61.498-.037-92.247 4.226.004 7.646-3.432 7.638-7.678s-3.433-7.693-7.65-7.697c-.027-30.749-.064-61.498-.112-92.247 4.157.007 7.516-3.423 7.5-7.669-.015-4.245-3.385-7.699-7.525-7.706-5-.009-10-.009-15 0-4.141.007-7.51 3.461-7.525 7.706-.015 4.244 3.343 7.676 7.5 7.669-.048 30.749-.086 61.498-.112 92.247-4.218.003-7.643 3.452-7.65 7.697-.008 4.245 3.412 7.68 7.638 7.678-.023 30.749-.036 61.498-.037 92.247-30.749.002-61.498.014-92.247.038.003-4.227-3.433-7.643-7.678-7.638-4.245.007-7.693 3.433-7.697 7.65-30.749.027-61.498.064-92.247.112.006-4.157-3.424-7.514-7.669-7.501-4.245.015-7.699 3.385-7.706 7.526-.009 5-.009 10 0 15 .007 4.141 3.461 7.51 7.706 7.526 4.245.015 7.675-3.343 7.669-7.501 30.749.048 61.498.086 92.247.112.003 4.217 3.452 7.642 7.697 7.65 4.245.006 7.681-3.411 7.678-7.638 30.749.023 61.498.036 92.247.038.002 30.749.014 61.498.037 92.247-4.225-.002-7.645 3.433-7.638 7.678s3.433 7.693 7.65 7.697c.027 30.749.064 61.498.112 92.247-4.157-.006-7.515 3.424-7.5 7.669.015 4.244 3.385 7.699 7.525 7.706 5 .009 10 .009 15 0 4.141-.007 7.51-3.462 7.525-7.706.015-4.245-3.344-7.675-7.5-7.669.048-30.749.086-61.498.112-92.247 4.217-.004 7.643-3.452 7.65-7.697s-3.412-7.681-7.638-7.678c.023-30.749.036-61.498.037-92.247 30.749-.002 61.498-.014 92.247-.038-.003 4.225 3.432 7.645 7.678 7.638 4.244-.008 7.693-3.432 7.697-7.65 30.749-.027 61.498-.064 92.247-.112-.007 4.158 3.423 7.515 7.668 7.501 4.245-.015 7.699-3.385 7.706-7.526.009-5 .009-10 0-15-.007-4.142-3.461-7.511-7.706-7.526z" fill="url(#SVGID_3_)"/><path d="m471.097 218.794c-93.767-9.25-168.276-84.121-177.533-177.887-2.504-.021-5.008-.04-7.513-.057.383 58.91.608 117.82.677 176.731.004 4.244 3.447 7.687 7.692 7.692 58.91.068 117.82.294 176.73.677-.016-2.386-.034-4.771-.053-7.156z" fill="url(#SVGID_4_)"/><path d="m217.58 286.728c-58.91-.068-117.82-.294-176.73-.677.016 2.385.034 4.77.053 7.156 93.766 9.25 168.276 84.12 177.533 177.887 2.504.021 5.008.04 7.513.057-.383-58.91-.608-117.82-.677-176.731-.004-4.244-3.447-7.689-7.692-7.692z" fill="url(#SVGID_5_)"/><path d="m471.753 210.965c-89.942-9.024-161.695-80.778-170.719-170.719-.435-4.226-4.116-7.358-8.246-6.994-4.12.366-7.12 4.098-6.7 8.326 9.448 97.258 87.073 174.885 184.332 184.332.249.025.493.038.738.04 3.915.024 7.243-2.861 7.588-6.74.369-4.118-2.766-7.809-6.993-8.245z" fill="url(#SVGID_6_)"/><path d="m41.579 286.09c-4.23-.422-7.958 2.581-8.325 6.699-.368 4.119 2.768 7.809 6.994 8.246 89.941 9.023 161.695 80.777 170.718 170.719.41 3.979 3.706 6.99 7.527 7.023.238.002.478-.009.719-.03 4.119-.368 7.119-4.099 6.7-8.326-9.448-97.257-87.074-174.884-184.333-184.331z" fill="url(#SVGID_7_)"/></g></svg>