<svg id="Capa_1" enable-background="new 0 0 512 512" height="512" viewBox="0 0 512 512" width="512" xmlns="http://www.w3.org/2000/svg" xmlns:xlink="http://www.w3.org/1999/xlink"><linearGradient id="SVGID_1_" gradientUnits="userSpaceOnUse" x1="74.98" x2="437.019" y1="437.019" y2="74.98"><stop offset=".0056" stop-color="#560dff"/><stop offset="1" stop-color="#73ecff"/></linearGradient><radialGradient id="SVGID_2_" cx="256" cy="256" gradientUnits="userSpaceOnUse" r="256"><stop offset="0" stop-color="#6b23ea"/><stop offset="1" stop-color="#25d2db" stop-opacity="0"/></radialGradient><linearGradient id="lg1"><stop offset="0" stop-color="#389fff"/><stop offset=".1209" stop-color="#45affa"/><stop offset=".5726" stop-color="#73e9e7"/><stop offset=".79" stop-color="#85ffe0"/><stop offset=".881" stop-color="#9dffe6"/><stop offset="1" stop-color="#c2fff0"/></linearGradient><linearGradient id="SVGID_3_" gradientUnits="userSpaceOnUse" x1="-420.817" x2="1082.477" xlink:href="#lg1" y1="762.159" y2="-741.136"/><linearGradient id="SVGID_4_" gradientUnits="userSpaceOnUse" x1="-270.145" x2="1200.627" xlink:href="#lg1" y1="558.399" y2="-912.374"/><linearGradient id="SVGID_5_" gradientUnits="userSpaceOnUse" x1="-161.157" x2="1191.488" xlink:href="#lg1" y1="607.466" y2="-745.179"/><linearGradient id="SVGID_6_" gradientUnits="userSpaceOnUse" x1="-68.006" x2="1435.292" xlink:href="#lg1" y1="750.664" y2="-752.633"/><linearGradient id="SVGID_7_" gradientUnits="userSpaceOnUse" x1="-298.181" x2="1054.471" xlink:href="#lg1" y1="875.872" y2="-476.78"/><linearGradient id="SVGID_8_" gradientUnits="userSpaceOnUse" x1="-237.826" x2="1232.944" xlink:href="#lg1" y1="973.572" y2="-497.198"/><linearGradient id="SVGID_9_" gradientUnits="userSpaceOnUse" x1="-246.302" x2="643.671" xlink:href="#lg1" y1="794.975" y2="-95.752"/><radialGradient id="SVGID_10_" cx="253.933" cy="258.155" gradientUnits="userSpaceOnUse" r="239.372"><stop offset="0" stop-color="#6b23ea"/><stop offset=".0214" stop-color="#6434e9" stop-opacity=".979"/><stop offset=".0757" stop-color="#5559e5" stop-opacity=".924"/><stop offset=".1364" stop-color="#487ae3" stop-opacity=".864"/><stop offset=".2031" stop-color="#3d95e0" stop-opacity=".797"/><stop offset=".2782" stop-color="#34acde" stop-opacity=".722"/><stop offset=".3652" stop-color="#2dbddd" stop-opacity=".635"/><stop offset=".4717" stop-color="#29c9dc" stop-opacity=".528"/><stop offset=".6187" stop-color="#26d0db" stop-opacity=".381"/><stop offset="1" stop-color="#25d2db" stop-opacity="0"/></radialGradient><linearGradient id="SVGID_11_" gradientUnits="userSpaceOnUse" x1="-625.602" x2="575.728" xlink:href="#lg1" y1="1101.429" y2="-99.9"/><linearGradient id="SVGID_12_" gradientTransform="matrix(1 0 0 -1 0 204.918)" gradientUnits="userSpaceOnUse" x1="-746.046" x2="441.171" xlink:href="#lg1" y1="-1040.66" y2="146.557"/><g><circle cx="256" cy="256" fill="url(#SVGID_1_)" r="256"/><circle cx="256" cy="256" fill="url(#SVGID_2_)" r="256"/><path d="m306.119 70.54c-33.413-.448-66.825-.448-100.238 0-5.807.08-9.518 6.528-6.663 11.598 6.212 11.027 12.475 22.086 18.778 33.168 25.336-.192 50.672-.192 76.008 0 6.302-11.083 12.565-22.142 18.778-33.168 2.855-5.07-.856-11.517-6.663-11.598z" fill="url(#SVGID_3_)"/><path d="m121.958 120.638c-17.423 29.535-34.877 58.87-52.153 87.845-3.006 5.035.641 11.241 6.556 11.19 12.857-.12 25.713-.226 38.57-.319 12.915-21.96 25.906-44.073 38.884-66.273-6.272-10.965-12.5-21.892-18.673-32.769-2.839-5.006-10.152-4.812-13.184.326z" fill="url(#SVGID_4_)"/><path d="m76.361 292.326c-5.915-.051-9.562 6.155-6.556 11.19 17.276 28.975 34.73 58.31 52.153 87.846 3.032 5.136 10.345 5.333 13.183.326 6.173-10.878 12.401-21.803 18.673-32.769-12.978-22.2-25.969-44.313-38.884-66.273-12.856-.094-25.713-.201-38.569-.32z" fill="url(#SVGID_5_)"/><path d="m312.782 429.862c-6.212-11.027-12.475-22.085-18.778-33.168-25.336.192-50.672.192-76.008 0-6.302 11.083-12.565 22.142-18.778 33.168-2.855 5.07.855 11.518 6.663 11.598 33.413.448 66.825.448 100.238 0 5.807-.08 9.518-6.528 6.663-11.598z" fill="url(#SVGID_6_)"/><path d="m435.639 219.674c5.915.05 9.562-6.155 6.556-11.19-17.276-28.975-34.73-58.31-52.153-87.845-3.032-5.138-10.344-5.332-13.183-.326-6.173 10.878-12.401 21.804-18.673 32.769 12.978 22.2 25.969 44.313 38.884 66.273 12.856.093 25.713.199 38.569.319z" fill="url(#SVGID_7_)"/><path d="m435.639 292.326c-12.857.119-25.714.226-38.57.32-12.915 21.959-25.906 44.073-38.883 66.273 6.272 10.966 12.5 21.892 18.673 32.769 2.839 5.007 10.152 4.811 13.183-.326 17.423-29.535 34.877-58.87 52.153-87.846 3.006-5.034-.641-11.241-6.556-11.19z" fill="url(#SVGID_8_)"/><path d="m441.447 353.535c-57.573-99.737-120.279-205.049-178.946-308.953-2.898-5.134-10.104-5.134-13.002 0-58.667 103.904-121.374 209.217-178.946 308.953-2.843 4.922.976 11.271 6.853 11.442 119.063 3.333 238.125 3.333 357.188 0 5.878-.17 9.696-6.52 6.853-11.442z" fill="url(#SVGID_9_)"/><path d="m441.447 353.535c-57.573-99.737-120.279-205.049-178.946-308.953-2.898-5.134-10.104-5.134-13.002 0-58.667 103.904-121.374 209.217-178.946 308.953-2.843 4.922.976 11.271 6.853 11.442 119.063 3.333 238.125 3.333 357.188 0 5.878-.17 9.696-6.52 6.853-11.442z" fill="url(#SVGID_10_)"/><path d="m192.059 144.843c-38.218.383-76.436 1.11-114.653 2.18-5.878.169-9.696 6.521-6.853 11.442 57.573 99.737 120.279 205.049 178.946 308.953 2.898 5.134 10.104 5.134 13.002 0 30.058-53.236 61.177-106.841 92.123-159.877-54.005-53.701-108.957-108.94-162.565-162.698z" fill="url(#SVGID_11_)"/><path d="m434.594 147.023c-80.845-2.264-161.69-2.99-242.535-2.18-.719 89.663 72.697 163.203 162.564 162.698 29.453-50.478 58.749-100.44 86.824-149.076 2.843-4.922-.975-11.272-6.853-11.442z" fill="url(#SVGID_12_)"/></g></svg>