<svg id="Capa_1" enable-background="new 0 0 512 512" height="512" viewBox="0 0 512 512" width="512" xmlns="http://www.w3.org/2000/svg" xmlns:xlink="http://www.w3.org/1999/xlink"><linearGradient id="lg1"><stop offset=".0056" stop-color="#560dff"/><stop offset="1" stop-color="#73ecff"/></linearGradient><linearGradient id="SVGID_1_" gradientUnits="userSpaceOnUse" x1="74.98" x2="437.019" xlink:href="#lg1" y1="437.019" y2="74.98"/><radialGradient id="SVGID_2_" cx="150.196" cy="256" gradientUnits="userSpaceOnUse" r="368.966"><stop offset="0" stop-color="#6b23ea" stop-opacity=".5"/><stop offset=".0218" stop-color="#6434e9" stop-opacity=".489"/><stop offset=".0755" stop-color="#5559e5" stop-opacity=".462"/><stop offset=".1355" stop-color="#487ae3" stop-opacity=".432"/><stop offset=".2015" stop-color="#3d96e0" stop-opacity=".399"/><stop offset=".2759" stop-color="#34acde" stop-opacity=".362"/><stop offset=".3622" stop-color="#2dbddd" stop-opacity=".319"/><stop offset=".4681" stop-color="#29c9dc" stop-opacity=".266"/><stop offset=".6147" stop-color="#26d0db" stop-opacity=".193"/><stop offset="1" stop-color="#25d2db" stop-opacity="0"/></radialGradient><radialGradient id="SVGID_3_" cx="-7388.572" cy="-5179.924" gradientTransform="matrix(-1 0 0 1 -7027.445 5435.924)" gradientUnits="userSpaceOnUse" r="368.966"><stop offset="0" stop-color="#6b23ea" stop-opacity=".5"/><stop offset=".0228" stop-color="#6436e8" stop-opacity=".489"/><stop offset=".075" stop-color="#555ae5" stop-opacity=".463"/><stop offset=".1336" stop-color="#487be2" stop-opacity=".433"/><stop offset=".1983" stop-color="#3d96e0" stop-opacity=".401"/><stop offset=".2711" stop-color="#34acde" stop-opacity=".364"/><stop offset=".356" stop-color="#2dbddd" stop-opacity=".322"/><stop offset=".4605" stop-color="#28c9dc" stop-opacity=".27"/><stop offset=".6061" stop-color="#26d0db" stop-opacity=".197"/><stop offset="1" stop-color="#25d2db" stop-opacity="0"/></radialGradient><linearGradient id="lg2"><stop offset="0" stop-color="#73ecff"/><stop offset="1" stop-color="#fff"/></linearGradient><linearGradient id="SVGID_4_" gradientUnits="userSpaceOnUse" x1="290.401" x2="647.788" xlink:href="#lg2" y1="330.227" y2="-27.16"/><linearGradient id="SVGID_5_" gradientUnits="userSpaceOnUse" x1="158.83" x2="514.253" xlink:href="#lg1" y1="466.301" y2="110.878"/><linearGradient id="SVGID_6_" gradientTransform="matrix(-1 0 0 1 551.997 0)" gradientUnits="userSpaceOnUse" x1="478.857" x2="121.467" xlink:href="#lg2" y1="330.227" y2="-27.163"/><linearGradient id="SVGID_7_" gradientTransform="matrix(-1 0 0 1 551.997 0)" gradientUnits="userSpaceOnUse" x1="554.843" x2="184.63" xlink:href="#lg1" y1="401.713" y2="31.5"/><linearGradient id="lg3"><stop offset="0" stop-color="#25d2db" stop-opacity="0"/><stop offset="1" stop-color="#6b23ea"/></linearGradient><radialGradient id="SVGID_8_" cx="387.154" cy="256.688" gradientTransform="matrix(-1 0 0 1 551.997 0)" gradientUnits="userSpaceOnUse" r="96.524" xlink:href="#lg3"/><radialGradient id="SVGID_9_" cx="358.245" cy="256" gradientUnits="userSpaceOnUse" r="99.861" xlink:href="#lg3"/><linearGradient id="SVGID_10_" gradientUnits="userSpaceOnUse" x1="-27.751" x2="460.54" xlink:href="#lg2" y1="673.961" y2="185.67"/><linearGradient id="SVGID_11_" gradientUnits="userSpaceOnUse" x1="-280.811" x2="673.58" xlink:href="#lg2" y1="782.884" y2="-171.507"/><g><circle cx="256" cy="256" fill="url(#SVGID_1_)" r="256"/><circle cx="256" cy="256" fill="url(#SVGID_2_)" r="256"/><circle cx="256" cy="256" fill="url(#SVGID_3_)" r="256"/><path d="m371.515 309.433c-11.521.075-22.382-3.475-31.522-10.293-19.162-14.306-38.632-28.712-58.141-43.141.112-.041 58.323-43.185 58.17-43.151 9.108-6.8 19.971-10.358 31.493-10.281 29.359.24 54.606 24.263 54.635 53.433-.029 29.169-25.276 53.192-54.635 53.433z" fill="url(#SVGID_4_)"/><path d="m372.186 278.9c-5.041.013-9.616-1.474-13.616-4.43-8.302-6.139-16.647-12.298-25.014-18.468 13.029-9.604 24.843-18.337 25.043-18.485 3.988-2.95 8.55-4.43 13.587-4.417 12.691.041 23.213 10.321 23.214 22.9-.001 12.577-10.523 22.856-23.214 22.9z" fill="url(#SVGID_5_)"/><path d="m140.483 309.433c11.521.075 22.382-3.474 31.522-10.293 19.162-14.306 38.632-28.712 58.141-43.141-.112-.042-58.323-43.186-58.17-43.151-9.108-6.8-19.971-10.358-31.493-10.281-29.359.24-54.606 24.263-54.635 53.433.028 29.169 25.275 53.192 54.635 53.433z" fill="url(#SVGID_6_)"/><path d="m139.811 278.9c5.041.013 9.617-1.474 13.616-4.43 8.302-6.139 16.647-12.298 25.014-18.468-13.029-9.602-24.843-18.335-25.043-18.485-3.988-2.95-8.55-4.43-13.587-4.417-12.691.041-23.213 10.321-23.214 22.9.001 12.577 10.523 22.856 23.214 22.9z" fill="url(#SVGID_7_)"/><path d="m139.811 278.9c5.041.013 9.617-1.474 13.616-4.43 8.302-6.139 16.647-12.298 25.014-18.468-13.029-9.602-24.843-18.335-25.043-18.485-3.988-2.95-8.55-4.43-13.587-4.417-12.691.041-23.213 10.321-23.214 22.9.001 12.577 10.523 22.856 23.214 22.9z" fill="url(#SVGID_8_)"/><path d="m372.189 278.9c-5.041.013-9.617-1.474-13.616-4.43-8.302-6.139-16.647-12.298-25.014-18.468 13.03-9.602 24.843-18.335 25.043-18.485 3.988-2.95 8.55-4.43 13.587-4.417 12.691.041 23.213 10.321 23.214 22.9-.001 12.577-10.523 22.856-23.214 22.9z" fill="url(#SVGID_9_)"/><path d="m369.5 156.768c21.892 33.326 43.837 66.469 64.338 99.232-20.5 32.763-42.446 65.906-64.338 99.232 53.14-.855 102.547-45.718 102.775-99.232-.228-53.512-49.635-98.381-102.775-99.232z" fill="url(#SVGID_10_)"/><path d="m441.525 256c-.142-53.971-35.25-98.654-72.025-99.232-21.022-.266-40.704 6.297-57.46 19.003-.263.203-.532.403-.803.606-18.11 13.725-36.601 27.539-55.238 41.375-18.636-13.835-37.128-27.649-55.238-41.375-.27-.205-.54-.403-.81-.598-16.748-12.711-36.43-19.279-57.452-19.011-53.139.854-102.546 45.718-102.774 99.232.228 53.512 49.635 98.38 102.775 99.232 21.022.266 40.704-6.299 57.46-19.003.262-.203.532-.403.803-.606 18.11-13.725 36.601-27.539 55.236-41.374 18.916 14.045 37.683 28.068 56.054 41.999 16.757 12.691 36.435 19.249 57.448 18.984 36.773-.577 71.882-45.26 72.024-99.232zm-278.827 30.788c-6.553 4.871-14.357 7.417-22.616 7.378-21.079-.12-38.849-17.264-38.857-38.166.008-20.903 17.779-38.046 38.857-38.166 8.259-.04 16.062 2.508 22.616 7.378.026.026 20.808 15.442 41.598 30.788-20.789 15.345-41.572 30.764-41.598 30.788zm209.22 7.378c-8.26.042-16.068-2.509-22.619-7.371-13.76-10.223-27.658-20.498-41.596-30.795 20.79-15.344 41.574-30.761 41.599-30.788 6.554-4.87 14.357-7.418 22.616-7.378 21.078.122 38.849 17.26 38.857 38.166-.009 20.906-17.779 38.045-38.857 38.166z" fill="url(#SVGID_11_)"/></g></svg>