<?xml version="1.0" encoding="utf-8"?>
<svg width="204pt" height="221.5pt" viewBox="0 0 204 221.5" version="1.1" xmlns="http://www.w3.org/2000/svg">
  <defs>
    <clipPath id="clip1">
      <path d="M 0 165 L 204 165 L 204 221.5 L 0 221.5 Z M 0 165 "/>
    </clipPath>
    <clipPath id="clip2">
      <path d="M 0 164 L 204 164 L 204 221.5 L 0 221.5 Z M 0 164 "/>
    </clipPath>
  </defs>
  <g id="surface1">
    <path style="stroke: none; fill-rule: evenodd; fill-opacity: 1; fill: rgb(255, 255, 255);" d="M 106.160156 95.21875 C 106.09375 108.59375 106.261719 126.238281 106.398438 143.382813 C 109.890625 143.25 112.414063 142.566406 115.074219 141.664063 C 106.953125 130.816406 105.726563 109.53125 114.945313 96.890625 C 112.097656 95.839844 108.941406 95.394531 106.160156 95.21875 Z M 106.160156 95.21875 "/>
    <path style="stroke: none; fill-rule: evenodd; fill-opacity: 1; fill: rgb(255, 255, 255);" d="M 103.320313 95.289063 C 103.382813 108.667969 103.21875 126.308594 103.082031 143.453125 C 99.589844 143.324219 97.066406 142.636719 94.40625 141.738281 C 102.527344 130.890625 103.753906 109.601563 94.535156 96.960938 C 97.382813 95.914063 100.535156 95.46875 103.320313 95.289063 Z M 103.320313 95.289063 "/>
    <path style="stroke: none; fill-rule: evenodd; fill-opacity: 1; fill: rgb(255, 255, 255);" d="M 123.648438 101.910156 C 122.167969 100.574219 120.449219 99.480469 118.582031 98.53125 C 106.875 111.835938 108.488281 131.027344 119.308594 139.746094 C 120.867188 138.632813 122.421875 137.519531 123.976563 136.40625 C 109.292969 129.125 110.210938 107.898438 123.648438 101.910156 Z M 123.648438 101.910156 "/>
    <path style="stroke: none; fill-rule: evenodd; fill-opacity: 1; fill: rgb(255, 255, 255);" d="M 85.832031 101.980469 C 87.308594 100.648438 89.03125 99.550781 90.898438 98.605469 C 102.605469 111.90625 100.988281 131.097656 90.167969 139.820313 C 88.613281 138.707031 87.058594 137.589844 85.503906 136.476563 C 100.1875 129.199219 99.265625 107.972656 85.832031 101.980469 Z M 85.832031 101.980469 "/>
    <path style="stroke: none; fill-rule: evenodd; fill-opacity: 1; fill: rgb(255, 255, 255);" d="M 131.6875 115.65625 C 131.105469 111.769531 129.160156 107.839844 126.546875 104.847656 C 110.667969 111.082031 113.792969 129.453125 126.726563 133.671875 C 129.140625 130.617188 130.976563 127.246094 131.679688 123.214844 C 125.328125 129.074219 117.582031 124.882813 117.832031 118.941406 C 118.105469 112.503906 126.609375 110.199219 131.6875 115.65625 Z M 131.6875 115.65625 "/>
    <path style="stroke: none; fill-rule: evenodd; fill-opacity: 1; fill: rgb(255, 255, 255);" d="M 77.792969 115.730469 C 78.371094 111.839844 80.320313 107.910156 82.933594 104.921875 C 98.808594 111.152344 95.6875 129.523438 82.753906 133.742188 C 80.335938 130.691406 78.503906 127.320313 77.800781 123.289063 C 84.152344 129.148438 91.894531 124.957031 91.644531 119.015625 C 91.375 112.574219 82.867188 110.273438 77.792969 115.730469 Z M 77.792969 115.730469 "/>
    <path style="stroke-width: 15.212; stroke-linecap: round; stroke-linejoin: round; stroke-opacity: 1; stroke-miterlimit: 4; fill: none; stroke: rgb(255, 255, 255);" d="M 1710.742188 996.914063 C 1748.125 996.914063 1778.398438 966.601563 1778.398438 929.257813 C 1778.398438 891.875 1748.125 861.601563 1710.742188 861.601563 C 1673.398438 861.601563 1643.085938 891.875 1643.085938 929.257813 C 1643.085938 966.601563 1673.398438 996.914063 1710.742188 996.914063 Z M 1710.742188 996.914063 " transform="matrix(0.1,0,0,-0.1,0,221.5)"/>
    <path style="stroke-width: 15.212; stroke-linecap: round; stroke-linejoin: round; stroke-opacity: 1; stroke-miterlimit: 4; fill: none; stroke: rgb(255, 255, 255);" d="M 372.539063 996.171875 C 335.195313 996.171875 304.882813 965.859375 304.882813 928.515625 C 304.882813 891.171875 335.195313 860.859375 372.539063 860.859375 C 409.921875 860.859375 440.234375 891.171875 440.234375 928.515625 C 440.234375 965.859375 409.921875 996.171875 372.539063 996.171875 Z M 372.539063 996.171875 " transform="matrix(0.1,0,0,-0.1,0,221.5)"/>
    <path style="stroke-width: 15.212; stroke-linecap: round; stroke-linejoin: round; stroke-opacity: 1; stroke-miterlimit: 4; fill: none; stroke: rgb(255, 255, 255);" d="M 1726.015625 821.5625 C 1763.398438 821.5625 1793.671875 791.289063 1793.671875 753.90625 C 1793.671875 716.5625 1763.398438 686.25 1726.015625 686.25 C 1688.671875 686.25 1658.359375 716.5625 1658.359375 753.90625 C 1658.359375 791.289063 1688.671875 821.5625 1726.015625 821.5625 Z M 1726.015625 821.5625 " transform="matrix(0.1,0,0,-0.1,0,221.5)"/>
    <path style="stroke-width: 15.212; stroke-linecap: round; stroke-linejoin: round; stroke-opacity: 1; stroke-miterlimit: 4; fill: none; stroke: rgb(255, 255, 255);" d="M 357.265625 820.859375 C 319.921875 820.859375 289.609375 790.546875 289.609375 753.164063 C 289.609375 715.820313 319.921875 685.507813 357.265625 685.507813 C 394.648438 685.507813 424.921875 715.820313 424.921875 753.164063 C 424.921875 790.546875 394.648438 820.859375 357.265625 820.859375 Z M 357.265625 820.859375 " transform="matrix(0.1,0,0,-0.1,0,221.5)"/>
    <path style="stroke-width: 15.212; stroke-linecap: round; stroke-linejoin: round; stroke-opacity: 1; stroke-miterlimit: 4; fill: none; stroke: rgb(255, 255, 255);" d="M 1531.757813 843.398438 C 1569.140625 843.398438 1599.453125 813.085938 1599.453125 775.742188 C 1599.453125 738.359375 1569.140625 708.085938 1531.757813 708.085938 C 1494.414063 708.085938 1464.101563 738.359375 1464.101563 775.742188 C 1464.101563 813.085938 1494.414063 843.398438 1531.757813 843.398438 Z M 1531.757813 843.398438 " transform="matrix(0.1,0,0,-0.1,0,221.5)"/>
    <path style="stroke-width: 15.212; stroke-linecap: round; stroke-linejoin: round; stroke-opacity: 1; stroke-miterlimit: 4; fill: none; stroke: rgb(255, 255, 255);" d="M 551.523438 842.65625 C 514.179688 842.65625 483.867188 812.382813 483.867188 775 C 483.867188 737.65625 514.179688 707.34375 551.523438 707.34375 C 588.90625 707.34375 619.179688 737.65625 619.179688 775 C 619.179688 812.382813 588.90625 842.65625 551.523438 842.65625 Z M 551.523438 842.65625 " transform="matrix(0.1,0,0,-0.1,0,221.5)"/>
    <path style="fill: none; stroke-width: 15.212; stroke-linecap: round; stroke-linejoin: round; stroke-opacity: 1; stroke-miterlimit: 4; stroke: rgb(255, 255, 255);" d="M 1523.046875 891.40625 C 1277.148438 815.742188 1490.3125 563.28125 1616.914063 697.148438 C 1722.382813 554.570313 1948.671875 716.796875 1800.234375 845.585938 C 1935.3125 1037.65625 1603.320313 1130.78125 1587.8125 924.140625 C 1576.328125 925.820313 1564.570313 931.171875 1552.148438 944.53125 C 1558.789063 979.53125 1547.304688 995.546875 1512.109375 983.828125 C 1498.710938 973.984375 1485.273438 964.179688 1471.835938 954.375 C 1460.9375 921.09375 1477.148438 909.257813 1511.914063 912.03125 C 1520.3125 906.015625 1525.351563 899.375 1523.046875 891.40625 Z M 1523.046875 891.40625 " transform="matrix(0.1,0,0,-0.1,0,221.5)"/>
    <path style="fill: none; stroke-width: 15.212; stroke-linecap: round; stroke-linejoin: round; stroke-opacity: 1; stroke-miterlimit: 4; stroke: rgb(255, 255, 255);" d="M 560.273438 890.703125 C 806.171875 815.039063 593.007813 562.578125 466.40625 696.445313 C 360.898438 553.828125 134.648438 716.09375 283.085938 844.84375 C 148.007813 1036.914063 480 1130.039063 495.507813 923.4375 C 506.953125 925.117188 518.75 930.429688 531.171875 943.789063 C 524.53125 978.789063 536.015625 994.804688 571.171875 983.085938 C 584.609375 973.28125 598.046875 963.4375 611.484375 953.632813 C 622.382813 920.390625 606.171875 908.515625 571.367188 911.289063 C 562.96875 905.273438 557.929688 898.632813 560.273438 890.703125 Z M 560.273438 890.703125 " transform="matrix(0.1,0,0,-0.1,0,221.5)"/>
    <path style="fill: none; stroke-width: 15.212; stroke-linecap: round; stroke-linejoin: round; stroke-opacity: 1; stroke-miterlimit: 4; stroke: rgb(255, 255, 255);" d="M 1413.90625 1071.835938 L 1509.21875 983.828125 L 1469.21875 953.242188 L 1405.898438 1004.179688 " transform="matrix(0.1,0,0,-0.1,0,221.5)"/>
    <path style="fill: none; stroke-width: 15.212; stroke-linecap: round; stroke-linejoin: round; stroke-opacity: 1; stroke-miterlimit: 4; stroke: rgb(255, 255, 255);" d="M 669.375 1071.132813 L 574.101563 983.085938 L 614.101563 952.539063 L 677.382813 1003.4375 " transform="matrix(0.1,0,0,-0.1,0,221.5)"/>
    <path style="fill: none; stroke-width: 15.212; stroke-linecap: round; stroke-linejoin: round; stroke-opacity: 1; stroke-miterlimit: 4; stroke: rgb(255, 255, 255);" d="M 638.90625 1420.3125 L 1437.421875 1420.3125 C 1420.898438 1206.09375 1405.507813 1017.5 1390.078125 803.242188 C 1381.601563 685.625 1231.757813 628.789063 1051.289063 624.648438 C 874.0625 620.625 704.921875 684.921875 696.445313 779.140625 Z M 638.90625 1420.3125 " transform="matrix(0.1,0,0,-0.1,0,221.5)"/>
    <path style="fill: none; stroke-width: 15.212; stroke-linecap: round; stroke-linejoin: round; stroke-opacity: 1; stroke-miterlimit: 4; stroke: rgb(255, 255, 255);" d="M 1048.203125 1420.273438 L 1536.132813 1873.59375 L 1576.875 1835.039063 L 1127.460938 1420.078125 Z M 1048.203125 1420.273438 " transform="matrix(0.1,0,0,-0.1,0,221.5)"/>
    <path style="fill: none; stroke-width: 15.212; stroke-linecap: round; stroke-linejoin: round; stroke-opacity: 1; stroke-miterlimit: 4; stroke: rgb(255, 255, 255);" d="M 1041.09375 1419.179688 L 553.125 1872.5 L 512.382813 1833.945313 L 961.796875 1418.984375 Z M 1041.09375 1419.179688 " transform="matrix(0.1,0,0,-0.1,0,221.5)"/>
    <path style="fill: none; stroke-width: 15.212; stroke-linecap: round; stroke-linejoin: round; stroke-opacity: 1; stroke-miterlimit: 4; stroke: rgb(255, 255, 255);" d="M 1289.882813 1569.804688 C 1313.945313 1548.789063 1338.007813 1527.8125 1362.070313 1506.796875 C 1413.203125 1551.757813 1451.09375 1509.21875 1407.65625 1463.710938 L 1479.101563 1400.546875 L 1583.007813 1501.328125 L 1507.1875 1573.632813 L 1473.085938 1540.039063 L 1443.203125 1567.617188 L 1476.5625 1599.726563 L 1438.632813 1636.601563 L 1466.015625 1662.734375 L 1508.476563 1621.992188 L 1547.109375 1659.609375 L 1572.070313 1632.421875 L 1539.648438 1603.203125 L 1622.03125 1533.476563 L 1727.421875 1629.84375 C 1703.710938 1652.734375 1680 1675.625 1656.328125 1698.515625 C 1612.734375 1663.75 1572.578125 1689.21875 1615.46875 1734.101563 L 1540 1800.742188 " transform="matrix(0.1,0,0,-0.1,0,221.5)"/>
    <path style="fill: none; stroke-width: 15.212; stroke-linecap: round; stroke-linejoin: round; stroke-opacity: 1; stroke-miterlimit: 4; stroke: rgb(255, 255, 255);" d="M 799.375 1568.710938 C 775.3125 1547.695313 751.25 1526.71875 727.1875 1505.703125 C 676.054688 1550.664063 638.203125 1508.125 681.601563 1462.617188 L 610.15625 1399.453125 L 506.25 1500.234375 L 582.070313 1572.539063 L 616.171875 1538.945313 L 646.054688 1566.523438 L 612.695313 1598.632813 L 650.625 1635.507813 L 623.28125 1661.640625 L 580.78125 1620.898438 L 542.148438 1658.515625 L 517.1875 1631.328125 L 549.609375 1602.109375 L 467.226563 1532.382813 L 361.875 1628.75 C 385.546875 1651.640625 409.257813 1674.53125 432.96875 1697.421875 C 476.523438 1662.65625 516.679688 1688.125 473.789063 1733.007813 L 549.257813 1799.648438 " transform="matrix(0.1,0,0,-0.1,0,221.5)"/>
    <path style="fill: none; stroke-width: 15.212; stroke-linecap: round; stroke-linejoin: round; stroke-opacity: 1; stroke-miterlimit: 4; stroke: rgb(255, 255, 255);" d="M 1425.546875 1271.171875 C 1511.640625 1290.585938 1566.445313 1370.390625 1633.632813 1375.234375 C 1729.648438 1350 1583.4375 1265.859375 1627.070313 1192.617188 C 1675.625 1215.234375 1695 1195.351563 1724.570313 1201.328125 C 1741.25 1204.726563 1752.8125 1216.40625 1769.6875 1221.71875 C 1753.75 1284.921875 1858.398438 1320.234375 1790.78125 1394.882813 C 1747.070313 1443.085938 1665.234375 1428.007813 1633.632813 1374.492188 " transform="matrix(0.1,0,0,-0.1,0,221.5)"/>
    <path style="fill: none; stroke-width: 15.212; stroke-linecap: round; stroke-linejoin: round; stroke-opacity: 1; stroke-miterlimit: 4; stroke: rgb(255, 255, 255);" d="M 654.492188 1274.101563 C 568.398438 1293.515625 513.59375 1373.28125 446.40625 1378.125 C 350.390625 1352.929688 496.601563 1268.75 452.96875 1195.507813 C 404.414063 1218.164063 385.039063 1198.242188 355.46875 1204.257813 C 338.789063 1207.65625 327.226563 1219.296875 310.351563 1224.609375 C 326.289063 1287.8125 221.640625 1323.164063 289.257813 1397.773438 C 332.96875 1446.015625 414.804688 1430.9375 446.40625 1377.421875 " transform="matrix(0.1,0,0,-0.1,0,221.5)"/>
    <path style="fill: none; stroke-width: 15.212; stroke-linecap: round; stroke-linejoin: round; stroke-opacity: 1; stroke-miterlimit: 4; stroke: rgb(255, 255, 255);" d="M 1425.546875 1271.171875 C 1511.640625 1290.585938 1566.445313 1370.390625 1633.632813 1375.234375 C 1729.648438 1350 1583.4375 1265.859375 1627.070313 1192.617188 C 1675.625 1215.234375 1695 1195.351563 1724.570313 1201.328125 C 1741.25 1204.726563 1752.8125 1216.40625 1769.6875 1221.71875 C 1753.75 1284.921875 1858.398438 1320.234375 1790.78125 1394.882813 C 1747.070313 1443.085938 1665.234375 1428.007813 1633.632813 1374.492188 " transform="matrix(0.1,0,0,-0.1,0,221.5)"/>
    <path style="fill: none; stroke-width: 15.212; stroke-linecap: round; stroke-linejoin: round; stroke-opacity: 1; stroke-miterlimit: 4; stroke: rgb(255, 255, 255);" d="M 654.492188 1274.101563 C 568.398438 1293.515625 513.59375 1373.28125 446.40625 1378.125 C 350.390625 1352.929688 496.601563 1268.75 452.96875 1195.507813 C 404.414063 1218.164063 385.039063 1198.242188 355.46875 1204.257813 C 338.789063 1207.65625 327.226563 1219.296875 310.351563 1224.609375 C 326.289063 1287.8125 221.640625 1323.164063 289.257813 1397.773438 C 332.96875 1446.015625 414.804688 1430.9375 446.40625 1377.421875 " transform="matrix(0.1,0,0,-0.1,0,221.5)"/>
    <path style="fill: none; stroke-width: 15.212; stroke-linecap: round; stroke-linejoin: round; stroke-opacity: 1; stroke-miterlimit: 4; stroke: rgb(255, 255, 255);" d="M 1431.71875 1349.0625 L 1559.335938 1345.078125 " transform="matrix(0.1,0,0,-0.1,0,221.5)"/>
    <path style="fill: none; stroke-width: 15.212; stroke-linecap: round; stroke-linejoin: round; stroke-opacity: 1; stroke-miterlimit: 4; stroke: rgb(255, 255, 255);" d="M 648.320313 1351.992188 L 520.703125 1347.96875 " transform="matrix(0.1,0,0,-0.1,0,221.5)"/>
    <path style="fill: none; stroke-width: 15.212; stroke-linecap: round; stroke-linejoin: round; stroke-opacity: 1; stroke-miterlimit: 4; stroke: rgb(255, 255, 255);" d="M 1431.71875 1349.0625 L 1559.335938 1345.078125 " transform="matrix(0.1,0,0,-0.1,0,221.5)"/>
    <path style="fill: none; stroke-width: 15.212; stroke-linecap: round; stroke-linejoin: round; stroke-opacity: 1; stroke-miterlimit: 4; stroke: rgb(255, 255, 255);" d="M 648.320313 1351.992188 L 520.703125 1347.96875 " transform="matrix(0.1,0,0,-0.1,0,221.5)"/>
    <path style="fill: none; stroke-width: 15.212; stroke-linecap: round; stroke-linejoin: round; stroke-opacity: 1; stroke-miterlimit: 4; stroke: rgb(255, 255, 255);" d="M 1722.382813 1228.984375 C 1727.460938 1269.296875 1740.742188 1303.476563 1779.882813 1318.476563 C 1780.351563 1324.296875 1780.820313 1330.117188 1781.328125 1335.9375 C 1770.898438 1333.828125 1760.078125 1332.578125 1750.9375 1330.820313 C 1745.625 1340.546875 1741.5625 1353.867188 1736.210938 1363.59375 C 1728.203125 1361.875 1721.679688 1360.195313 1713.671875 1358.476563 C 1716.5625 1346.132813 1718.007813 1333.75 1720.9375 1321.40625 C 1710.273438 1319.921875 1699.609375 1318.476563 1688.90625 1317.03125 C 1687.8125 1307.929688 1686.679688 1300.507813 1685.117188 1291.914063 C 1694.0625 1293.398438 1701.054688 1293.75 1710.039063 1295.195313 C 1712.8125 1270.9375 1690.117188 1252.539063 1697.65625 1224.609375 C 1705.898438 1226.09375 1714.140625 1227.539063 1722.382813 1228.984375 Z M 1722.382813 1228.984375 " transform="matrix(0.1,0,0,-0.1,0,221.5)"/>
    <path style="fill: none; stroke-width: 15.212; stroke-linecap: round; stroke-linejoin: round; stroke-opacity: 1; stroke-miterlimit: 4; stroke: rgb(255, 255, 255);" d="M 357.65625 1231.914063 C 352.617188 1272.226563 339.296875 1306.40625 300.195313 1321.40625 C 299.6875 1327.1875 299.21875 1333.046875 298.710938 1338.867188 C 309.179688 1336.71875 319.960938 1335.507813 329.101563 1333.75 C 334.453125 1343.4375 338.515625 1356.796875 343.828125 1366.484375 C 351.835938 1364.804688 358.398438 1363.085938 366.367188 1361.40625 C 363.476563 1349.023438 362.03125 1336.679688 359.101563 1324.296875 C 369.765625 1322.851563 380.46875 1321.40625 391.132813 1319.921875 C 392.226563 1310.859375 393.398438 1303.398438 394.921875 1294.84375 C 385.976563 1296.289063 378.984375 1296.640625 370.039063 1298.125 C 367.226563 1273.867188 389.921875 1255.429688 382.382813 1227.539063 C 374.140625 1228.984375 365.898438 1230.429688 357.65625 1231.914063 Z M 357.65625 1231.914063 " transform="matrix(0.1,0,0,-0.1,0,221.5)"/>
    <path style="fill: none; stroke-width: 15.212; stroke-linecap: round; stroke-linejoin: round; stroke-opacity: 1; stroke-miterlimit: 4; stroke: rgb(255, 255, 255);" d="M 1722.382813 1228.984375 C 1727.460938 1269.296875 1740.742188 1303.476563 1779.882813 1318.476563 C 1780.351563 1324.296875 1780.820313 1330.117188 1781.328125 1335.9375 C 1770.898438 1333.828125 1760.078125 1332.578125 1750.9375 1330.820313 C 1745.625 1340.546875 1741.5625 1353.867188 1736.210938 1363.59375 C 1728.203125 1361.875 1721.679688 1360.195313 1713.671875 1358.476563 C 1716.5625 1346.132813 1718.007813 1333.75 1720.9375 1321.40625 C 1710.273438 1319.921875 1699.609375 1318.476563 1688.90625 1317.03125 C 1687.8125 1307.929688 1686.679688 1300.507813 1685.117188 1291.914063 C 1694.0625 1293.398438 1701.054688 1293.75 1710.039063 1295.195313 C 1712.8125 1270.9375 1690.117188 1252.539063 1697.65625 1224.609375 C 1705.898438 1226.09375 1714.140625 1227.539063 1722.382813 1228.984375 Z M 1722.382813 1228.984375 " transform="matrix(0.1,0,0,-0.1,0,221.5)"/>
    <path style="fill: none; stroke-width: 15.212; stroke-linecap: round; stroke-linejoin: round; stroke-opacity: 1; stroke-miterlimit: 4; stroke: rgb(255, 255, 255);" d="M 357.65625 1231.914063 C 352.617188 1272.226563 339.296875 1306.40625 300.195313 1321.40625 C 299.6875 1327.1875 299.21875 1333.046875 298.710938 1338.867188 C 309.179688 1336.71875 319.960938 1335.507813 329.101563 1333.75 C 334.453125 1343.4375 338.515625 1356.796875 343.828125 1366.484375 C 351.835938 1364.804688 358.398438 1363.085938 366.367188 1361.40625 C 363.476563 1349.023438 362.03125 1336.679688 359.101563 1324.296875 C 369.765625 1322.851563 380.46875 1321.40625 391.132813 1319.921875 C 392.226563 1310.859375 393.398438 1303.398438 394.921875 1294.84375 C 385.976563 1296.289063 378.984375 1296.640625 370.039063 1298.125 C 367.226563 1273.867188 389.921875 1255.429688 382.382813 1227.539063 C 374.140625 1228.984375 365.898438 1230.429688 357.65625 1231.914063 Z M 357.65625 1231.914063 " transform="matrix(0.1,0,0,-0.1,0,221.5)"/>
    <path style="fill: none; stroke-width: 15.212; stroke-linecap: round; stroke-linejoin: round; stroke-opacity: 1; stroke-miterlimit: 4; stroke: rgb(255, 255, 255);" d="M 1770.429688 1195.351563 C 1784.414063 1167.03125 1787.34375 1135.234375 1788.671875 1102.96875 " transform="matrix(0.1,0,0,-0.1,0,221.5)"/>
    <path style="fill: none; stroke-width: 15.212; stroke-linecap: round; stroke-linejoin: round; stroke-opacity: 1; stroke-miterlimit: 4; stroke: rgb(255, 255, 255);" d="M 309.609375 1198.28125 C 295.625 1169.921875 292.695313 1138.164063 291.40625 1105.898438 " transform="matrix(0.1,0,0,-0.1,0,221.5)"/>
    <path style="fill: none; stroke-width: 15.212; stroke-linecap: round; stroke-linejoin: round; stroke-opacity: 1; stroke-miterlimit: 4; stroke: rgb(255, 255, 255);" d="M 1770.429688 1195.351563 C 1784.414063 1167.03125 1787.34375 1135.234375 1788.671875 1102.96875 " transform="matrix(0.1,0,0,-0.1,0,221.5)"/>
    <path style="fill: none; stroke-width: 15.212; stroke-linecap: round; stroke-linejoin: round; stroke-opacity: 1; stroke-miterlimit: 4; stroke: rgb(255, 255, 255);" d="M 309.609375 1198.28125 C 295.625 1169.921875 292.695313 1138.164063 291.40625 1105.898438 " transform="matrix(0.1,0,0,-0.1,0,221.5)"/>
    <path style="fill: none; stroke-width: 15.212; stroke-linecap: round; stroke-linejoin: round; stroke-opacity: 1; stroke-miterlimit: 4; stroke: rgb(255, 255, 255);" d="M 1753.671875 1187.695313 C 1767.65625 1159.335938 1770.546875 1127.578125 1771.875 1095.3125 " transform="matrix(0.1,0,0,-0.1,0,221.5)"/>
    <path style="fill: none; stroke-width: 15.212; stroke-linecap: round; stroke-linejoin: round; stroke-opacity: 1; stroke-miterlimit: 4; stroke: rgb(255, 255, 255);" d="M 326.40625 1190.585938 C 312.382813 1162.265625 309.492188 1130.46875 308.164063 1098.203125 " transform="matrix(0.1,0,0,-0.1,0,221.5)"/>
    <path style="fill: none; stroke-width: 15.212; stroke-linecap: round; stroke-linejoin: round; stroke-opacity: 1; stroke-miterlimit: 4; stroke: rgb(255, 255, 255);" d="M 1753.671875 1187.695313 C 1767.65625 1159.335938 1770.546875 1127.578125 1771.875 1095.3125 " transform="matrix(0.1,0,0,-0.1,0,221.5)"/>
    <path style="fill: none; stroke-width: 15.212; stroke-linecap: round; stroke-linejoin: round; stroke-opacity: 1; stroke-miterlimit: 4; stroke: rgb(255, 255, 255);" d="M 326.40625 1190.585938 C 312.382813 1162.265625 309.492188 1130.46875 308.164063 1098.203125 " transform="matrix(0.1,0,0,-0.1,0,221.5)"/>
    <path style="fill: none; stroke-width: 15.212; stroke-linecap: round; stroke-linejoin: round; stroke-opacity: 1; stroke-miterlimit: 4; stroke: rgb(255, 255, 255);" d="M 1735.078125 1181.679688 C 1749.0625 1153.320313 1751.953125 1121.5625 1753.28125 1089.296875 " transform="matrix(0.1,0,0,-0.1,0,221.5)"/>
    <path style="fill: none; stroke-width: 15.212; stroke-linecap: round; stroke-linejoin: round; stroke-opacity: 1; stroke-miterlimit: 4; stroke: rgb(255, 255, 255);" d="M 345 1184.570313 C 330.976563 1156.210938 328.085938 1124.453125 326.757813 1092.1875 " transform="matrix(0.1,0,0,-0.1,0,221.5)"/>
    <path style="fill: none; stroke-width: 15.212; stroke-linecap: round; stroke-linejoin: round; stroke-opacity: 1; stroke-miterlimit: 4; stroke: rgb(255, 255, 255);" d="M 1735.078125 1181.679688 C 1749.0625 1153.320313 1751.953125 1121.5625 1753.28125 1089.296875 " transform="matrix(0.1,0,0,-0.1,0,221.5)"/>
    <path style="fill: none; stroke-width: 15.212; stroke-linecap: round; stroke-linejoin: round; stroke-opacity: 1; stroke-miterlimit: 4; stroke: rgb(255, 255, 255);" d="M 345 1184.570313 C 330.976563 1156.210938 328.085938 1124.453125 326.757813 1092.1875 " transform="matrix(0.1,0,0,-0.1,0,221.5)"/>
    <path style="fill: none; stroke-width: 15.212; stroke-linecap: round; stroke-linejoin: round; stroke-opacity: 1; stroke-miterlimit: 4; stroke: rgb(255, 255, 255);" d="M 1715.546875 1178.203125 C 1729.570313 1149.84375 1732.460938 1118.085938 1733.789063 1085.820313 " transform="matrix(0.1,0,0,-0.1,0,221.5)"/>
    <path style="fill: none; stroke-width: 15.212; stroke-linecap: round; stroke-linejoin: round; stroke-opacity: 1; stroke-miterlimit: 4; stroke: rgb(255, 255, 255);" d="M 364.492188 1181.09375 C 350.46875 1152.773438 347.578125 1120.976563 346.25 1088.75 " transform="matrix(0.1,0,0,-0.1,0,221.5)"/>
    <path style="fill: none; stroke-width: 15.212; stroke-linecap: round; stroke-linejoin: round; stroke-opacity: 1; stroke-miterlimit: 4; stroke: rgb(255, 255, 255);" d="M 1715.546875 1178.203125 C 1729.570313 1149.84375 1732.460938 1118.085938 1733.789063 1085.820313 " transform="matrix(0.1,0,0,-0.1,0,221.5)"/>
    <path style="fill: none; stroke-width: 15.212; stroke-linecap: round; stroke-linejoin: round; stroke-opacity: 1; stroke-miterlimit: 4; stroke: rgb(255, 255, 255);" d="M 364.492188 1181.09375 C 350.46875 1152.773438 347.578125 1120.976563 346.25 1088.75 " transform="matrix(0.1,0,0,-0.1,0,221.5)"/>
    <path style="fill: none; stroke-width: 15.212; stroke-linecap: round; stroke-linejoin: round; stroke-opacity: 1; stroke-miterlimit: 4; stroke: rgb(255, 255, 255);" d="M 1696.953125 1178.945313 C 1710.976563 1150.585938 1713.867188 1118.828125 1715.195313 1086.5625 " transform="matrix(0.1,0,0,-0.1,0,221.5)"/>
    <path style="fill: none; stroke-width: 15.212; stroke-linecap: round; stroke-linejoin: round; stroke-opacity: 1; stroke-miterlimit: 4; stroke: rgb(255, 255, 255);" d="M 383.085938 1181.835938 C 369.101563 1153.476563 366.171875 1121.71875 364.84375 1089.453125 " transform="matrix(0.1,0,0,-0.1,0,221.5)"/>
    <path style="fill: none; stroke-width: 15.212; stroke-linecap: round; stroke-linejoin: round; stroke-opacity: 1; stroke-miterlimit: 4; stroke: rgb(255, 255, 255);" d="M 1696.953125 1178.945313 C 1710.976563 1150.585938 1713.867188 1118.828125 1715.195313 1086.5625 " transform="matrix(0.1,0,0,-0.1,0,221.5)"/>
    <path style="fill: none; stroke-width: 15.212; stroke-linecap: round; stroke-linejoin: round; stroke-opacity: 1; stroke-miterlimit: 4; stroke: rgb(255, 255, 255);" d="M 383.085938 1181.835938 C 369.101563 1153.476563 366.171875 1121.71875 364.84375 1089.453125 " transform="matrix(0.1,0,0,-0.1,0,221.5)"/>
    <path style="fill: none; stroke-width: 15.212; stroke-linecap: round; stroke-linejoin: round; stroke-opacity: 1; stroke-miterlimit: 4; stroke: rgb(255, 255, 255);" d="M 1674.179688 1179.101563 C 1688.164063 1152.65625 1691.09375 1123.046875 1692.382813 1092.929688 " transform="matrix(0.1,0,0,-0.1,0,221.5)"/>
    <path style="fill: none; stroke-width: 15.212; stroke-linecap: round; stroke-linejoin: round; stroke-opacity: 1; stroke-miterlimit: 4; stroke: rgb(255, 255, 255);" d="M 405.859375 1182.03125 C 391.875 1155.585938 388.984375 1125.9375 387.65625 1095.859375 " transform="matrix(0.1,0,0,-0.1,0,221.5)"/>
    <path style="fill: none; stroke-width: 15.212; stroke-linecap: round; stroke-linejoin: round; stroke-opacity: 1; stroke-miterlimit: 4; stroke: rgb(255, 255, 255);" d="M 1674.179688 1179.101563 C 1688.164063 1152.65625 1691.09375 1123.046875 1692.382813 1092.929688 " transform="matrix(0.1,0,0,-0.1,0,221.5)"/>
    <path style="fill: none; stroke-width: 15.212; stroke-linecap: round; stroke-linejoin: round; stroke-opacity: 1; stroke-miterlimit: 4; stroke: rgb(255, 255, 255);" d="M 405.859375 1182.03125 C 391.875 1155.585938 388.984375 1125.9375 387.65625 1095.859375 " transform="matrix(0.1,0,0,-0.1,0,221.5)"/>
    <path style="fill: none; stroke-width: 15.212; stroke-linecap: round; stroke-linejoin: round; stroke-opacity: 1; stroke-miterlimit: 4; stroke: rgb(255, 255, 255);" d="M 1657.226563 1176.5625 C 1671.210938 1150.117188 1674.140625 1120.46875 1675.46875 1090.390625 " transform="matrix(0.1,0,0,-0.1,0,221.5)"/>
    <path style="fill: none; stroke-width: 15.212; stroke-linecap: round; stroke-linejoin: round; stroke-opacity: 1; stroke-miterlimit: 4; stroke: rgb(255, 255, 255);" d="M 422.8125 1179.453125 C 408.828125 1153.007813 405.9375 1123.398438 404.609375 1093.28125 " transform="matrix(0.1,0,0,-0.1,0,221.5)"/>
    <path style="fill: none; stroke-width: 15.212; stroke-linecap: round; stroke-linejoin: round; stroke-opacity: 1; stroke-miterlimit: 4; stroke: rgb(255, 255, 255);" d="M 1657.226563 1176.5625 C 1671.210938 1150.117188 1674.140625 1120.46875 1675.46875 1090.390625 " transform="matrix(0.1,0,0,-0.1,0,221.5)"/>
    <path style="fill: none; stroke-width: 15.212; stroke-linecap: round; stroke-linejoin: round; stroke-opacity: 1; stroke-miterlimit: 4; stroke: rgb(255, 255, 255);" d="M 422.8125 1179.453125 C 408.828125 1153.007813 405.9375 1123.398438 404.609375 1093.28125 " transform="matrix(0.1,0,0,-0.1,0,221.5)"/>
    <path style="fill: none; stroke-width: 15.212; stroke-linecap: round; stroke-linejoin: round; stroke-opacity: 1; stroke-miterlimit: 4; stroke: rgb(255, 255, 255);" d="M 1639.726563 1171.09375 C 1653.710938 1144.648438 1656.640625 1115 1657.96875 1084.921875 " transform="matrix(0.1,0,0,-0.1,0,221.5)"/>
    <path style="fill: none; stroke-width: 15.212; stroke-linecap: round; stroke-linejoin: round; stroke-opacity: 1; stroke-miterlimit: 4; stroke: rgb(255, 255, 255);" d="M 440.3125 1173.984375 C 426.328125 1147.539063 423.398438 1117.929688 422.109375 1087.8125 " transform="matrix(0.1,0,0,-0.1,0,221.5)"/>
    <path style="fill: none; stroke-width: 15.212; stroke-linecap: round; stroke-linejoin: round; stroke-opacity: 1; stroke-miterlimit: 4; stroke: rgb(255, 255, 255);" d="M 1639.726563 1171.09375 C 1653.710938 1144.648438 1656.640625 1115 1657.96875 1084.921875 " transform="matrix(0.1,0,0,-0.1,0,221.5)"/>
    <path style="fill: none; stroke-width: 15.212; stroke-linecap: round; stroke-linejoin: round; stroke-opacity: 1; stroke-miterlimit: 4; stroke: rgb(255, 255, 255);" d="M 440.3125 1173.984375 C 426.328125 1147.539063 423.398438 1117.929688 422.109375 1087.8125 " transform="matrix(0.1,0,0,-0.1,0,221.5)"/>
    <path style="fill: none; stroke-width: 15.212; stroke-linecap: round; stroke-linejoin: round; stroke-opacity: 1; stroke-miterlimit: 4; stroke: rgb(255, 255, 255);" d="M 1623.671875 1164.335938 C 1637.695313 1137.890625 1640.585938 1108.242188 1641.914063 1078.164063 " transform="matrix(0.1,0,0,-0.1,0,221.5)"/>
    <path style="fill: none; stroke-width: 15.212; stroke-linecap: round; stroke-linejoin: round; stroke-opacity: 1; stroke-miterlimit: 4; stroke: rgb(255, 255, 255);" d="M 456.367188 1167.226563 C 442.382813 1140.78125 439.453125 1111.171875 438.125 1081.054688 " transform="matrix(0.1,0,0,-0.1,0,221.5)"/>
    <path style="fill: none; stroke-width: 15.212; stroke-linecap: round; stroke-linejoin: round; stroke-opacity: 1; stroke-miterlimit: 4; stroke: rgb(255, 255, 255);" d="M 1623.671875 1164.335938 C 1637.695313 1137.890625 1640.585938 1108.242188 1641.914063 1078.164063 " transform="matrix(0.1,0,0,-0.1,0,221.5)"/>
    <path style="fill: none; stroke-width: 15.212; stroke-linecap: round; stroke-linejoin: round; stroke-opacity: 1; stroke-miterlimit: 4; stroke: rgb(255, 255, 255);" d="M 456.367188 1167.226563 C 442.382813 1140.78125 439.453125 1111.171875 438.125 1081.054688 " transform="matrix(0.1,0,0,-0.1,0,221.5)"/>
    <path style="fill: none; stroke-width: 15.212; stroke-linecap: round; stroke-linejoin: round; stroke-opacity: 1; stroke-miterlimit: 4; stroke: rgb(255, 255, 255);" d="M 1610 1162.304688 C 1624.023438 1135.859375 1624.921875 1101.132813 1623.476563 1071.210938 " transform="matrix(0.1,0,0,-0.1,0,221.5)"/>
    <path style="fill: none; stroke-width: 15.212; stroke-linecap: round; stroke-linejoin: round; stroke-opacity: 1; stroke-miterlimit: 4; stroke: rgb(255, 255, 255);" d="M 470.039063 1165.234375 C 456.054688 1138.789063 455.15625 1104.023438 456.5625 1074.140625 " transform="matrix(0.1,0,0,-0.1,0,221.5)"/>
    <path style="fill: none; stroke-width: 15.212; stroke-linecap: round; stroke-linejoin: round; stroke-opacity: 1; stroke-miterlimit: 4; stroke: rgb(255, 255, 255);" d="M 1610 1162.304688 C 1624.023438 1135.859375 1624.921875 1101.132813 1623.476563 1071.210938 " transform="matrix(0.1,0,0,-0.1,0,221.5)"/>
    <path style="fill: none; stroke-width: 15.212; stroke-linecap: round; stroke-linejoin: round; stroke-opacity: 1; stroke-miterlimit: 4; stroke: rgb(255, 255, 255);" d="M 470.039063 1165.234375 C 456.054688 1138.789063 455.15625 1104.023438 456.5625 1074.140625 " transform="matrix(0.1,0,0,-0.1,0,221.5)"/>
    <path style="fill: none; stroke-width: 15.212; stroke-linecap: round; stroke-linejoin: round; stroke-opacity: 1; stroke-miterlimit: 4; stroke: rgb(255, 255, 255);" d="M 1627.5 1192.070313 C 1598.867188 1182.695313 1600.390625 1154.179688 1622.03125 1163.945313 C 1640.742188 1172.421875 1662.265625 1183.007813 1702.96875 1178.945313 C 1731.328125 1176.09375 1753.125 1188.554688 1775.546875 1197.929688 C 1791.601563 1204.609375 1784.6875 1224.0625 1770.078125 1221.289063 " transform="matrix(0.1,0,0,-0.1,0,221.5)"/>
    <path style="fill: none; stroke-width: 15.212; stroke-linecap: round; stroke-linejoin: round; stroke-opacity: 1; stroke-miterlimit: 4; stroke: rgb(255, 255, 255);" d="M 452.539063 1195 C 481.171875 1185.625 479.648438 1157.070313 458.007813 1166.875 C 439.296875 1175.3125 417.773438 1185.9375 377.070313 1181.835938 C 348.710938 1178.984375 326.914063 1191.484375 304.53125 1200.820313 C 288.4375 1207.539063 295.351563 1226.992188 310 1224.179688 " transform="matrix(0.1,0,0,-0.1,0,221.5)"/>
    <path style="fill: none; stroke-width: 15.212; stroke-linecap: round; stroke-linejoin: round; stroke-opacity: 1; stroke-miterlimit: 4; stroke: rgb(255, 255, 255);" d="M 1627.5 1192.070313 C 1598.867188 1182.695313 1600.390625 1154.179688 1622.03125 1163.945313 C 1640.742188 1172.421875 1662.265625 1183.007813 1702.96875 1178.945313 C 1731.328125 1176.09375 1753.125 1188.554688 1775.546875 1197.929688 C 1791.601563 1204.609375 1784.6875 1224.0625 1770.078125 1221.289063 " transform="matrix(0.1,0,0,-0.1,0,221.5)"/>
    <path style="fill: none; stroke-width: 15.212; stroke-linecap: round; stroke-linejoin: round; stroke-opacity: 1; stroke-miterlimit: 4; stroke: rgb(255, 255, 255);" d="M 452.539063 1195 C 481.171875 1185.625 479.648438 1157.070313 458.007813 1166.875 C 439.296875 1175.3125 417.773438 1185.9375 377.070313 1181.835938 C 348.710938 1178.984375 326.914063 1191.484375 304.53125 1200.820313 C 288.4375 1207.539063 295.351563 1226.992188 310 1224.179688 " transform="matrix(0.1,0,0,-0.1,0,221.5)"/>
    <path style="fill: none; stroke-width: 15.212; stroke-linecap: round; stroke-linejoin: round; stroke-opacity: 1; stroke-miterlimit: 4; stroke: rgb(255, 255, 255);" d="M 933.398438 1663.710938 C 950.429688 1605.78125 953.710938 1558.515625 940.625 1512.304688 " transform="matrix(0.1,0,0,-0.1,0,221.5)"/>
    <path style="fill: none; stroke-width: 15.212; stroke-linecap: round; stroke-linejoin: round; stroke-opacity: 1; stroke-miterlimit: 4; stroke: rgb(255, 255, 255);" d="M 1144.257813 1660.9375 C 1127.226563 1603.046875 1124.375 1549.765625 1137.460938 1503.515625 " transform="matrix(0.1,0,0,-0.1,0,221.5)"/>
    <path style="fill: none; stroke-width: 15.212; stroke-linecap: round; stroke-linejoin: round; stroke-opacity: 1; stroke-miterlimit: 4; stroke: rgb(255, 255, 255);" d="M 980.15625 1663.398438 C 1027.070313 1590.898438 1018.984375 1497.890625 1005.898438 1451.679688 " transform="matrix(0.1,0,0,-0.1,0,221.5)"/>
    <path style="fill: none; stroke-width: 15.212; stroke-linecap: round; stroke-linejoin: round; stroke-opacity: 1; stroke-miterlimit: 4; stroke: rgb(255, 255, 255);" d="M 1092.695313 1662.96875 C 1045.78125 1590.46875 1052.539063 1488.789063 1072.1875 1442.929688 " transform="matrix(0.1,0,0,-0.1,0,221.5)"/>
    <path style="fill: none; stroke-width: 15.212; stroke-linecap: round; stroke-linejoin: round; stroke-opacity: 1; stroke-miterlimit: 4; stroke: rgb(255, 255, 255);" d="M 1173.789063 1420.273438 C 1166.953125 1429.84375 1163.085938 1439.570313 1159.921875 1450.585938 " transform="matrix(0.1,0,0,-0.1,0,221.5)"/>
    <path style="fill: none; stroke-width: 15.212; stroke-linecap: round; stroke-linejoin: round; stroke-opacity: 1; stroke-miterlimit: 4; stroke: rgb(255, 255, 255);" d="M 901.523438 1420.273438 C 908.398438 1429.84375 916.992188 1445.78125 920.117188 1456.796875 " transform="matrix(0.1,0,0,-0.1,0,221.5)"/>
    <path style="fill: none; stroke-width: 15.212; stroke-linecap: round; stroke-linejoin: round; stroke-opacity: 1; stroke-miterlimit: 4; stroke: rgb(255, 255, 255);" d="M 796.601563 1664.921875 C 774.882813 1694.882813 777.382813 1773.359375 809.21875 1816.015625 C 794.882813 1862.421875 823.476563 1896.640625 845.820313 1913.554688 C 850.078125 1965.664063 918.867188 2014.84375 987.65625 2053.398438 C 1020.234375 2053.046875 1046.054688 2052.851563 1078.632813 2052.5 C 1145.78125 2026.09375 1213.710938 1968.90625 1218.554688 1911.992188 C 1257.734375 1891.5625 1277.1875 1854.179688 1271.328125 1815.390625 C 1313.320313 1764.6875 1309.023438 1714.023438 1285.859375 1663.320313 C 1122.773438 1663.867188 959.6875 1664.375 796.601563 1664.921875 Z M 796.601563 1664.921875 " transform="matrix(0.1,0,0,-0.1,0,221.5)"/>
    <path style="fill: none; stroke-width: 15.212; stroke-linecap: round; stroke-linejoin: round; stroke-opacity: 1; stroke-miterlimit: 4; stroke: rgb(255, 255, 255);" d="M 845.820313 1913.554688 L 1219.179688 1912.460938 " transform="matrix(0.1,0,0,-0.1,0,221.5)"/>
    <path style="fill: none; stroke-width: 15.271; stroke-linecap: round; stroke-linejoin: round; stroke-opacity: 1; stroke-miterlimit: 4; stroke: rgb(255, 255, 255);" d="M 809.023438 1815.703125 L 1271.679688 1814.609375 " transform="matrix(0.1,0,0,-0.1,0,221.5)"/>
    <path style="fill: none; stroke-width: 15.212; stroke-linecap: round; stroke-linejoin: round; stroke-opacity: 1; stroke-miterlimit: 4; stroke: rgb(255, 255, 255);" d="M 821.757813 1888.75 C 831.875 1838.4375 849.375 1805.625 861.523438 1847.109375 C 883.632813 1922.734375 892.265625 1946.171875 906.367188 1847.109375 C 909.492188 1825.195313 930.195313 1819.726563 935.507813 1844.570313 C 956.132813 1940.46875 961.640625 1931.132813 984.726563 1842.734375 C 988.789063 1827.265625 1007.03125 1819.257813 1013.90625 1841.640625 C 1038.515625 1921.40625 1039.453125 1946.054688 1061.289063 1843.085938 C 1065.898438 1821.445313 1087.382813 1822.382813 1092.65625 1843.828125 C 1116.054688 1938.789063 1122.304688 1932.148438 1142.226563 1841.289063 C 1145.351563 1827.148438 1164.453125 1819.21875 1169.960938 1841.640625 C 1192.65625 1934.375 1202.109375 1935.390625 1219.179688 1841.640625 C 1225.039063 1809.335938 1246.367188 1837.382813 1251.25 1884.726563 " transform="matrix(0.1,0,0,-0.1,0,221.5)"/>
    <path style="fill: none; stroke-width: 15.212; stroke-linecap: round; stroke-linejoin: round; stroke-opacity: 1; stroke-miterlimit: 4; stroke: rgb(255, 255, 255);" d="M 796.601563 1794.179688 C 803.164063 1770.546875 807.148438 1746.054688 816.289063 1723.320313 C 823.671875 1705.078125 840.195313 1704.570313 844.375 1723.320313 C 871.484375 1845.15625 884.179688 1845.3125 911.09375 1723.710938 C 915.3125 1704.6875 943.4375 1699.804688 949.023438 1722.617188 C 980.3125 1850.351563 987.421875 1836.132813 1021.210938 1723.320313 C 1029.453125 1695.78125 1064.101563 1694.375 1072.96875 1723.320313 C 1108.242188 1838.320313 1110.273438 1846.796875 1143.710938 1722.617188 C 1149.726563 1700.195313 1180.15625 1700.898438 1185.273438 1723.320313 C 1215.898438 1857.734375 1226.679688 1829.414063 1246.132813 1724.0625 C 1249.453125 1706.210938 1259.21875 1704.84375 1266.210938 1723.320313 C 1275.039063 1746.796875 1278.359375 1772.03125 1284.453125 1796.367188 " transform="matrix(0.1,0,0,-0.1,0,221.5)"/>
    <path style="fill: none; stroke-width: 15.212; stroke-linecap: round; stroke-linejoin: round; stroke-opacity: 1; stroke-miterlimit: 4; stroke: rgb(255, 255, 255);" d="M 876.445313 1972.734375 C 886.171875 1929.765625 901.132813 1894.335938 907.8125 1925.273438 C 924.335938 2001.601563 933.476563 1993.515625 955.9375 1927.460938 C 961.953125 1909.84375 973.671875 1909.960938 977.8125 1927.070313 C 995.351563 1999.257813 1004.101563 1998.789063 1023.75 1927.460938 C 1029.414063 1906.835938 1045 1909.921875 1049.257813 1927.8125 C 1064.335938 1990.585938 1071.875 2008.359375 1092.65625 1927.460938 C 1097.34375 1909.21875 1112.96875 1912.5 1117.070313 1927.460938 C 1134.804688 1991.914063 1139.257813 1992.539063 1153.164063 1928.164063 C 1157.03125 1910.273438 1172.734375 1904.765625 1178.320313 1927.460938 C 1182.578125 1944.648438 1180.820313 1960.742188 1191.09375 1971.640625 " transform="matrix(0.1,0,0,-0.1,0,221.5)"/>
    <path style="fill: none; stroke-width: 15.212; stroke-linecap: round; stroke-linejoin: round; stroke-opacity: 1; stroke-miterlimit: 4; stroke: rgb(255, 255, 255);" d="M 1016.835938 2169.140625 L 1017.1875 2208.046875 L 1048.203125 2208.046875 L 1047.8125 2168.789063 L 1094.492188 2169.140625 L 1094.492188 2144.6875 L 1048.007813 2144.53125 L 1048.203125 2082.8125 L 1016.09375 2082.617188 L 1015.742188 2144.6875 L 971.992188 2145.429688 L 971.992188 2168.789063 Z M 1016.835938 2169.140625 " transform="matrix(0.1,0,0,-0.1,0,221.5)"/>
    <path style="fill: none; stroke-width: 15.212; stroke-linecap: round; stroke-linejoin: round; stroke-opacity: 1; stroke-miterlimit: 4; stroke: rgb(255, 255, 255);" d="M 988.007813 2053.789063 C 992.695313 2066.015625 1000.703125 2076.40625 1016.09375 2082.8125 C 1026.796875 2082.734375 1037.5 2082.695313 1048.164063 2082.617188 C 1060.195313 2077.1875 1071.132813 2067.890625 1078.4375 2053.046875 " transform="matrix(0.1,0,0,-0.1,0,221.5)"/>
    <g clip-path="url(#clip1)" clip-rule="nonzero">
      <path style="stroke: none; fill-rule: evenodd; fill-opacity: 1; fill: rgb(255, 255, 255);" d="M 34.457031 185.386719 L 34.457031 165.796875 L 41.847656 165.796875 C 43.148438 165.796875 44.140625 165.859375 44.824219 165.984375 C 45.789063 166.144531 46.59375 166.449219 47.246094 166.902344 C 47.894531 167.347656 48.417969 167.980469 48.816406 168.789063 C 49.210938 169.601563 49.410156 170.488281 49.410156 171.460938 C 49.410156 173.125 48.878906 174.539063 47.820313 175.695313 C 46.757813 176.84375 44.84375 177.421875 42.074219 177.421875 L 37.050781 177.421875 L 37.050781 185.386719 Z M 37.050781 175.109375 L 42.117188 175.109375 C 43.789063 175.109375 44.980469 174.800781 45.683594 174.175781 C 46.386719 173.550781 46.734375 172.675781 46.734375 171.542969 C 46.734375 170.722656 46.53125 170.019531 46.117188 169.4375 C 45.699219 168.851563 45.15625 168.46875 44.480469 168.28125 C 44.039063 168.167969 43.238281 168.109375 42.0625 168.109375 L 37.050781 168.109375 Z M 65.5625 165.796875 L 68.15625 165.796875 L 68.15625 177.117188 C 68.15625 179.082031 67.933594 180.644531 67.488281 181.804688 C 67.039063 182.964844 66.238281 183.902344 65.074219 184.628906 C 63.910156 185.355469 62.386719 185.71875 60.5 185.71875 C 58.667969 185.71875 57.160156 185.402344 56 184.769531 C 54.832031 184.140625 53.996094 183.222656 53.5 182.023438 C 52.996094 180.824219 52.75 179.191406 52.75 177.117188 L 52.75 165.796875 L 55.34375 165.796875 L 55.34375 177.101563 C 55.34375 178.804688 55.5 180.058594 55.816406 180.859375 C 56.128906 181.667969 56.679688 182.289063 57.445313 182.726563 C 58.214844 183.164063 59.160156 183.382813 60.273438 183.382813 C 62.179688 183.382813 63.535156 182.949219 64.347656 182.082031 C 65.15625 181.222656 65.5625 179.5625 65.5625 177.101563 Z M 86.445313 178.515625 L 89.039063 179.171875 C 88.496094 181.296875 87.515625 182.921875 86.105469 184.042969 C 84.691406 185.160156 82.96875 185.71875 80.925781 185.71875 C 78.816406 185.71875 77.101563 185.289063 75.777344 184.433594 C 74.457031 183.570313 73.445313 182.324219 72.757813 180.695313 C 72.070313 179.0625 71.722656 177.3125 71.722656 175.441406 C 71.722656 173.40625 72.109375 171.625 72.890625 170.105469 C 73.671875 168.589844 74.777344 167.433594 76.21875 166.644531 C 77.65625 165.855469 79.238281 165.464844 80.96875 165.464844 C 82.929688 165.464844 84.574219 165.960938 85.910156 166.960938 C 87.246094 167.960938 88.175781 169.359375 88.703125 171.167969 L 86.152344 171.773438 C 85.695313 170.34375 85.039063 169.308594 84.171875 168.65625 C 83.3125 168.003906 82.226563 167.679688 80.914063 167.679688 C 79.40625 167.679688 78.152344 168.042969 77.140625 168.761719 C 76.128906 169.488281 75.417969 170.453125 75.011719 171.671875 C 74.601563 172.882813 74.394531 174.136719 74.394531 175.429688 C 74.394531 177.097656 74.636719 178.546875 75.121094 179.792969 C 75.609375 181.035156 76.359375 181.964844 77.386719 182.582031 C 78.414063 183.195313 79.523438 183.5 80.714844 183.5 C 82.167969 183.5 83.394531 183.082031 84.402344 182.246094 C 85.410156 181.40625 86.089844 180.164063 86.445313 178.515625 Z M 99.753906 185.386719 L 99.753906 165.796875 L 103.65625 165.796875 L 108.289063 179.667969 C 108.71875 180.957031 109.03125 181.921875 109.222656 182.566406 C 109.449219 181.855469 109.792969 180.804688 110.269531 179.425781 L 114.957031 165.796875 L 118.445313 165.796875 L 118.445313 185.386719 L 115.945313 185.386719 L 115.945313 168.988281 L 110.253906 185.386719 L 107.914063 185.386719 L 102.25 168.710938 L 102.25 185.386719 Z M 122.332031 165.796875 L 124.738281 165.796875 L 124.738281 168.566406 L 122.332031 168.566406 Z M 122.332031 171.195313 L 124.738281 171.195313 L 124.738281 185.386719 L 122.332031 185.386719 Z M 128.402344 185.386719 L 128.402344 171.195313 L 130.5625 171.195313 L 130.5625 173.210938 C 131.609375 171.652344 133.113281 170.875 135.078125 170.875 C 135.9375 170.875 136.71875 171.027344 137.4375 171.332031 C 138.15625 171.644531 138.691406 172.046875 139.046875 172.546875 C 139.40625 173.042969 139.652344 173.636719 139.796875 174.320313 C 139.886719 174.769531 139.929688 175.546875 139.929688 176.660156 L 139.929688 185.386719 L 137.523438 185.386719 L 137.523438 176.75 C 137.523438 175.777344 137.429688 175.042969 137.246094 174.554688 C 137.058594 174.070313 136.726563 173.683594 136.25 173.394531 C 135.773438 173.101563 135.214844 172.957031 134.570313 172.957031 C 133.546875 172.957031 132.664063 173.285156 131.917969 173.933594 C 131.175781 174.585938 130.804688 175.816406 130.804688 177.636719 L 130.804688 185.386719 Z M 152.878906 183.632813 C 151.984375 184.390625 151.125 184.925781 150.304688 185.238281 C 149.480469 185.550781 148.59375 185.703125 147.652344 185.703125 C 146.09375 185.703125 144.898438 185.324219 144.058594 184.5625 C 143.222656 183.800781 142.804688 182.828125 142.804688 181.644531 C 142.804688 180.949219 142.960938 180.3125 143.277344 179.738281 C 143.59375 179.164063 144.007813 178.703125 144.519531 178.355469 C 145.035156 178.011719 145.609375 177.746094 146.25 177.566406 C 146.722656 177.445313 147.433594 177.320313 148.386719 177.207031 C 150.328125 176.976563 151.761719 176.703125 152.675781 176.378906 C 152.6875 176.050781 152.691406 175.839844 152.691406 175.753906 C 152.691406 174.773438 152.464844 174.078125 152.007813 173.683594 C 151.394531 173.136719 150.480469 172.867188 149.269531 172.867188 C 148.140625 172.867188 147.304688 173.0625 146.761719 173.460938 C 146.222656 173.855469 145.828125 174.558594 145.566406 175.566406 L 143.21875 175.242188 C 143.433594 174.238281 143.785156 173.421875 144.273438 172.808594 C 144.761719 172.1875 145.472656 171.707031 146.398438 171.375 C 147.324219 171.042969 148.394531 170.875 149.617188 170.875 C 150.832031 170.875 151.8125 171.019531 152.566406 171.300781 C 153.324219 171.589844 153.882813 171.945313 154.242188 172.378906 C 154.597656 172.8125 154.84375 173.355469 154.988281 174.015625 C 155.066406 174.425781 155.109375 175.164063 155.109375 176.230469 L 155.109375 179.4375 C 155.109375 181.675781 155.160156 183.089844 155.261719 183.679688 C 155.363281 184.273438 155.570313 184.84375 155.871094 185.386719 L 153.355469 185.386719 C 153.109375 184.886719 152.945313 184.304688 152.878906 183.632813 Z M 152.675781 178.261719 C 151.800781 178.621094 150.492188 178.921875 148.75 179.171875 C 147.761719 179.316406 147.058594 179.472656 146.652344 179.652344 C 146.242188 179.832031 145.921875 180.089844 145.703125 180.4375 C 145.480469 180.777344 145.367188 181.15625 145.367188 181.578125 C 145.367188 182.21875 145.613281 182.753906 146.097656 183.183594 C 146.578125 183.605469 147.292969 183.820313 148.226563 183.820313 C 149.152344 183.820313 149.976563 183.621094 150.699219 183.214844 C 151.417969 182.808594 151.953125 182.25 152.289063 181.550781 C 152.550781 181.007813 152.675781 180.203125 152.675781 179.144531 Z M 157.875 181.148438 L 160.253906 180.773438 C 160.386719 181.726563 160.757813 182.457031 161.371094 182.96875 C 161.976563 183.472656 162.828125 183.730469 163.929688 183.730469 C 165.03125 183.730469 165.851563 183.5 166.386719 183.054688 C 166.921875 182.601563 167.1875 182.074219 167.1875 181.472656 C 167.1875 180.925781 166.953125 180.5 166.476563 180.1875 C 166.148438 179.972656 165.328125 179.703125 164.019531 179.375 C 162.257813 178.925781 161.03125 178.542969 160.351563 178.214844 C 159.671875 177.890625 159.152344 177.441406 158.800781 176.867188 C 158.453125 176.289063 158.273438 175.65625 158.273438 174.964844 C 158.273438 174.332031 158.417969 173.746094 158.710938 173.207031 C 159 172.664063 159.394531 172.21875 159.890625 171.863281 C 160.265625 171.589844 160.777344 171.351563 161.421875 171.160156 C 162.066406 170.96875 162.761719 170.875 163.5 170.875 C 164.613281 170.875 165.589844 171.039063 166.433594 171.355469 C 167.277344 171.675781 167.894531 172.109375 168.296875 172.65625 C 168.699219 173.207031 168.972656 173.9375 169.121094 174.855469 L 166.773438 175.179688 C 166.664063 174.449219 166.355469 173.878906 165.84375 173.46875 C 165.332031 173.058594 164.609375 172.851563 163.671875 172.851563 C 162.570313 172.851563 161.78125 173.035156 161.308594 173.398438 C 160.835938 173.765625 160.597656 174.191406 160.597656 174.679688 C 160.597656 174.996094 160.699219 175.273438 160.894531 175.523438 C 161.089844 175.785156 161.398438 175.996094 161.816406 176.167969 C 162.058594 176.253906 162.765625 176.460938 163.941406 176.777344 C 165.644531 177.234375 166.828125 177.605469 167.5 177.894531 C 168.175781 178.183594 168.703125 178.609375 169.085938 179.160156 C 169.46875 179.710938 169.660156 180.394531 169.660156 181.214844 C 169.660156 182.019531 169.421875 182.773438 168.957031 183.484375 C 168.488281 184.191406 167.8125 184.738281 166.933594 185.125 C 166.054688 185.511719 165.054688 185.703125 163.941406 185.703125 C 162.09375 185.703125 160.691406 185.320313 159.722656 184.554688 C 158.757813 183.789063 158.140625 182.652344 157.875 181.148438 Z M 0.207031 215.953125 L 0.207031 196.367188 L 7.59375 196.367188 C 8.894531 196.367188 9.890625 196.429688 10.574219 196.554688 C 11.535156 196.714844 12.34375 197.019531 12.996094 197.46875 C 13.640625 197.917969 14.167969 198.550781 14.5625 199.359375 C 14.960938 200.171875 15.15625 201.058594 15.15625 202.03125 C 15.15625 203.695313 14.628906 205.109375 13.570313 206.261719 C 12.507813 207.414063 10.589844 207.992188 7.824219 207.992188 L 2.796875 207.992188 L 2.796875 215.953125 Z M 2.796875 205.679688 L 7.863281 205.679688 C 9.539063 205.679688 10.726563 205.367188 11.429688 204.746094 C 12.132813 204.121094 12.484375 203.242188 12.484375 202.113281 C 12.484375 201.292969 12.277344 200.589844 11.863281 200.003906 C 11.449219 199.421875 10.90625 199.039063 10.226563 198.851563 C 9.789063 198.738281 8.984375 198.679688 7.808594 198.679688 L 2.796875 198.679688 Z M 17.253906 208.859375 C 17.253906 206.230469 17.984375 204.285156 19.449219 203.019531 C 20.664063 201.972656 22.152344 201.441406 23.90625 201.441406 C 25.859375 201.441406 27.457031 202.082031 28.691406 203.363281 C 29.933594 204.640625 30.546875 206.40625 30.546875 208.65625 C 30.546875 210.484375 30.273438 211.921875 29.726563 212.96875 C 29.179688 214.015625 28.382813 214.828125 27.335938 215.40625 C 26.289063 215.984375 25.148438 216.273438 23.90625 216.273438 C 21.925781 216.273438 20.320313 215.640625 19.09375 214.363281 C 17.867188 213.089844 17.253906 211.257813 17.253906 208.859375 Z M 19.726563 208.859375 C 19.726563 210.675781 20.121094 212.035156 20.917969 212.941406 C 21.710938 213.847656 22.707031 214.296875 23.90625 214.296875 C 25.101563 214.296875 26.097656 213.84375 26.890625 212.933594 C 27.679688 212.027344 28.078125 210.640625 28.078125 208.78125 C 28.078125 207.023438 27.679688 205.691406 26.882813 204.789063 C 26.082031 203.886719 25.09375 203.433594 23.90625 203.433594 C 22.707031 203.433594 21.710938 203.886719 20.917969 204.785156 C 20.121094 205.683594 19.726563 207.042969 19.726563 208.859375 Z M 42.628906 210.753906 L 44.992188 211.066406 C 44.734375 212.695313 44.074219 213.96875 43.007813 214.890625 C 41.945313 215.8125 40.636719 216.273438 39.085938 216.273438 C 37.148438 216.273438 35.582031 215.640625 34.40625 214.371094 C 33.226563 213.105469 32.632813 211.285156 32.632813 208.914063 C 32.632813 207.378906 32.886719 206.039063 33.394531 204.890625 C 33.90625 203.742188 34.675781 202.878906 35.714844 202.304688 C 36.75 201.730469 37.882813 201.441406 39.097656 201.441406 C 40.640625 201.441406 41.902344 201.835938 42.878906 202.613281 C 43.859375 203.394531 44.488281 204.5 44.769531 205.933594 L 42.429688 206.296875 C 42.203125 205.339844 41.8125 204.625 41.246094 204.140625 C 40.683594 203.664063 39.996094 203.421875 39.195313 203.421875 C 37.980469 203.421875 36.996094 203.855469 36.238281 204.726563 C 35.484375 205.59375 35.105469 206.964844 35.105469 208.84375 C 35.105469 210.75 35.46875 212.136719 36.203125 213.003906 C 36.933594 213.867188 37.886719 214.296875 39.0625 214.296875 C 40.007813 214.296875 40.792969 214.007813 41.425781 213.425781 C 42.058594 212.847656 42.460938 211.960938 42.628906 210.753906 Z M 37.054688 217.742188 L 37.75 215.378906 L 39.542969 215.378906 L 39.097656 216.808594 C 39.855469 216.898438 40.425781 217.128906 40.808594 217.507813 C 41.191406 217.886719 41.382813 218.308594 41.382813 218.773438 C 41.382813 219.4375 41.066406 220.03125 40.421875 220.542969 C 39.777344 221.050781 38.816406 221.308594 37.519531 221.308594 C 36.792969 221.308594 36.152344 221.257813 35.597656 221.148438 L 35.746094 219.585938 C 36.316406 219.621094 36.738281 219.640625 37 219.640625 C 37.839844 219.640625 38.429688 219.523438 38.765625 219.292969 C 39.023438 219.113281 39.152344 218.894531 39.152344 218.636719 C 39.152344 218.476563 39.105469 218.335938 39 218.210938 C 38.898438 218.082031 38.707031 217.980469 38.433594 217.886719 C 38.15625 217.800781 37.695313 217.75 37.054688 217.742188 Z M 46.15625 208.859375 C 46.15625 206.230469 46.882813 204.285156 48.347656 203.019531 C 49.566406 201.972656 51.054688 201.441406 52.808594 201.441406 C 54.761719 201.441406 56.355469 202.082031 57.59375 203.363281 C 58.832031 204.640625 59.449219 206.40625 59.449219 208.65625 C 59.449219 210.484375 59.175781 211.921875 58.628906 212.96875 C 58.082031 214.015625 57.28125 214.828125 56.238281 215.40625 C 55.1875 215.984375 54.050781 216.273438 52.808594 216.273438 C 50.824219 216.273438 49.21875 215.640625 47.992188 214.363281 C 46.765625 213.089844 46.15625 211.257813 46.15625 208.859375 Z M 48.625 208.859375 C 48.625 210.675781 49.023438 212.035156 49.816406 212.941406 C 50.609375 213.847656 51.609375 214.296875 52.808594 214.296875 C 54.003906 214.296875 54.996094 213.84375 55.792969 212.933594 C 56.578125 212.027344 56.976563 210.640625 56.976563 208.78125 C 56.976563 207.023438 56.578125 205.691406 55.78125 204.789063 C 54.984375 203.886719 53.996094 203.433594 52.808594 203.433594 C 51.609375 203.433594 50.609375 203.886719 49.816406 204.785156 C 49.023438 205.683594 48.625 207.042969 48.625 208.859375 Z M 61.308594 211.71875 L 63.683594 211.34375 C 63.816406 212.296875 64.191406 213.027344 64.804688 213.535156 C 65.410156 214.042969 66.261719 214.296875 67.359375 214.296875 C 68.464844 214.296875 69.285156 214.070313 69.820313 213.625 C 70.351563 213.171875 70.621094 212.644531 70.621094 212.042969 C 70.621094 211.492188 70.386719 211.070313 69.910156 210.753906 C 69.582031 210.539063 68.761719 210.273438 67.453125 209.941406 C 65.691406 209.496094 64.464844 209.113281 63.785156 208.785156 C 63.105469 208.460938 62.585938 208.007813 62.234375 207.433594 C 61.882813 206.859375 61.707031 206.226563 61.707031 205.535156 C 61.707031 204.898438 61.851563 204.316406 62.144531 203.777344 C 62.429688 203.234375 62.828125 202.789063 63.324219 202.433594 C 63.699219 202.160156 64.210938 201.921875 64.851563 201.730469 C 65.5 201.539063 66.195313 201.441406 66.933594 201.441406 C 68.046875 201.441406 69.019531 201.605469 69.863281 201.925781 C 70.707031 202.246094 71.328125 202.679688 71.730469 203.226563 C 72.132813 203.777344 72.40625 204.507813 72.554688 205.421875 L 70.207031 205.746094 C 70.097656 205.019531 69.789063 204.449219 69.277344 204.039063 C 68.765625 203.628906 68.039063 203.421875 67.105469 203.421875 C 66.003906 203.421875 65.214844 203.605469 64.742188 203.96875 C 64.269531 204.332031 64.03125 204.761719 64.03125 205.25 C 64.03125 205.566406 64.132813 205.84375 64.328125 206.09375 C 64.523438 206.355469 64.828125 206.5625 65.25 206.738281 C 65.492188 206.824219 66.199219 207.027344 67.375 207.347656 C 69.074219 207.804688 70.261719 208.171875 70.933594 208.464844 C 71.605469 208.753906 72.136719 209.175781 72.519531 209.730469 C 72.902344 210.28125 73.09375 210.964844 73.09375 211.785156 C 73.09375 212.589844 72.855469 213.339844 72.390625 214.050781 C 71.921875 214.757813 71.246094 215.304688 70.367188 215.695313 C 69.488281 216.082031 68.488281 216.273438 67.375 216.273438 C 65.527344 216.273438 64.125 215.890625 63.15625 215.125 C 62.191406 214.359375 61.574219 213.222656 61.308594 211.71875 Z M 92.757813 215.953125 L 92.757813 214.160156 C 91.859375 215.570313 90.539063 216.273438 88.792969 216.273438 C 87.660156 216.273438 86.621094 215.964844 85.671875 215.339844 C 84.722656 214.71875 83.988281 213.847656 83.464844 212.726563 C 82.945313 211.609375 82.683594 210.328125 82.683594 208.871094 C 82.683594 207.457031 82.921875 206.171875 83.390625 205.019531 C 83.867188 203.863281 84.574219 202.980469 85.515625 202.367188 C 86.460938 201.753906 87.519531 201.441406 88.6875 201.441406 C 89.539063 201.441406 90.300781 201.625 90.964844 201.984375 C 91.636719 202.34375 92.179688 202.816406 92.597656 203.394531 L 92.597656 196.367188 L 94.988281 196.367188 L 94.988281 215.953125 Z M 85.15625 208.871094 C 85.15625 210.691406 85.539063 212.050781 86.304688 212.949219 C 87.070313 213.847656 87.976563 214.296875 89.019531 214.296875 C 90.066406 214.296875 90.960938 213.867188 91.695313 213.007813 C 92.429688 212.152344 92.800781 210.835938 92.800781 209.070313 C 92.800781 207.128906 92.425781 205.707031 91.679688 204.800781 C 90.929688 203.886719 90.007813 203.433594 88.910156 203.433594 C 87.84375 203.433594 86.949219 203.875 86.234375 204.746094 C 85.515625 205.617188 85.15625 206.992188 85.15625 208.871094 Z M 108.484375 211.382813 L 110.96875 211.691406 C 110.578125 213.144531 109.851563 214.269531 108.792969 215.074219 C 107.730469 215.871094 106.375 216.273438 104.730469 216.273438 C 102.65625 216.273438 101.007813 215.636719 99.796875 214.359375 C 98.578125 213.082031 97.972656 211.289063 97.972656 208.980469 C 97.972656 206.589844 98.585938 204.738281 99.8125 203.421875 C 101.046875 202.105469 102.636719 201.441406 104.597656 201.441406 C 106.496094 201.441406 108.046875 202.089844 109.246094 203.378906 C 110.449219 204.671875 111.050781 206.492188 111.050781 208.832031 C 111.050781 208.976563 111.046875 209.191406 111.039063 209.472656 L 100.457031 209.472656 C 100.542969 211.035156 100.984375 212.226563 101.78125 213.054688 C 102.574219 213.882813 103.558594 214.296875 104.742188 214.296875 C 105.625 214.296875 106.375 214.066406 107 213.601563 C 107.625 213.140625 108.117188 212.402344 108.484375 211.382813 Z M 100.589844 207.496094 L 108.511719 207.496094 C 108.40625 206.304688 108.101563 205.40625 107.601563 204.8125 C 106.835938 203.886719 105.84375 203.421875 104.625 203.421875 C 103.523438 203.421875 102.589844 203.792969 101.839844 204.53125 C 101.085938 205.269531 100.671875 206.257813 100.589844 207.496094 Z M 135.875 209.085938 L 138.46875 209.742188 C 137.925781 211.867188 136.945313 213.492188 135.535156 214.613281 C 134.121094 215.730469 132.398438 216.285156 130.355469 216.285156 C 128.246094 216.285156 126.53125 215.859375 125.207031 215 C 123.882813 214.140625 122.875 212.894531 122.1875 211.265625 C 121.5 209.632813 121.152344 207.882813 121.152344 206.011719 C 121.152344 203.972656 121.539063 202.195313 122.320313 200.675781 C 123.101563 199.15625 124.207031 198.003906 125.648438 197.214844 C 127.085938 196.425781 128.667969 196.035156 130.398438 196.035156 C 132.359375 196.035156 134.003906 196.53125 135.339844 197.53125 C 136.675781 198.527344 137.605469 199.929688 138.132813 201.738281 L 135.582031 202.339844 C 135.125 200.914063 134.46875 199.878906 133.601563 199.226563 C 132.742188 198.574219 131.65625 198.25 130.34375 198.25 C 128.835938 198.25 127.582031 198.609375 126.570313 199.332031 C 125.558594 200.054688 124.847656 201.023438 124.441406 202.242188 C 124.03125 203.453125 123.824219 204.707031 123.824219 206 C 123.824219 207.667969 124.066406 209.117188 124.550781 210.363281 C 125.039063 211.601563 125.789063 212.535156 126.816406 213.148438 C 127.84375 213.765625 128.949219 214.070313 130.144531 214.070313 C 131.597656 214.070313 132.824219 213.652344 133.832031 212.816406 C 134.839844 211.976563 135.519531 210.730469 135.875 209.085938 Z M 150.613281 214.203125 C 149.71875 214.960938 148.863281 215.492188 148.042969 215.808594 C 147.214844 216.117188 146.332031 216.273438 145.386719 216.273438 C 143.828125 216.273438 142.632813 215.894531 141.792969 215.132813 C 140.960938 214.371094 140.539063 213.394531 140.539063 212.214844 C 140.539063 211.515625 140.695313 210.882813 141.015625 210.308594 C 141.328125 209.734375 141.742188 209.273438 142.253906 208.925781 C 142.769531 208.578125 143.34375 208.316406 143.988281 208.136719 C 144.457031 208.015625 145.167969 207.890625 146.121094 207.777344 C 148.066406 207.542969 149.496094 207.269531 150.414063 206.945313 C 150.421875 206.617188 150.425781 206.410156 150.425781 206.320313 C 150.425781 205.339844 150.199219 204.648438 149.742188 204.25 C 149.132813 203.703125 148.214844 203.433594 147.007813 203.433594 C 145.875 203.433594 145.039063 203.632813 144.5 204.027344 C 143.960938 204.425781 143.5625 205.128906 143.304688 206.136719 L 140.953125 205.8125 C 141.167969 204.808594 141.519531 203.992188 142.007813 203.375 C 142.496094 202.753906 143.207031 202.277344 144.132813 201.945313 C 145.058594 201.609375 146.128906 201.441406 147.351563 201.441406 C 148.566406 201.441406 149.546875 201.589844 150.304688 201.871094 C 151.0625 202.160156 151.617188 202.515625 151.976563 202.949219 C 152.332031 203.378906 152.578125 203.921875 152.726563 204.585938 C 152.804688 204.996094 152.84375 205.734375 152.84375 206.800781 L 152.84375 210.007813 C 152.84375 212.246094 152.894531 213.660156 153 214.25 C 153.097656 214.839844 153.304688 215.410156 153.605469 215.953125 L 151.09375 215.953125 C 150.847656 215.457031 150.683594 214.875 150.613281 214.203125 Z M 150.414063 208.832031 C 149.539063 209.191406 148.230469 209.492188 146.488281 209.742188 C 145.496094 209.882813 144.792969 210.042969 144.390625 210.222656 C 143.976563 210.398438 143.660156 210.660156 143.441406 211.003906 C 143.214844 211.347656 143.101563 211.726563 143.101563 212.144531 C 143.101563 212.789063 143.347656 213.324219 143.832031 213.75 C 144.316406 214.175781 145.027344 214.390625 145.960938 214.390625 C 146.886719 214.390625 147.714844 214.1875 148.433594 213.78125 C 149.15625 213.378906 149.6875 212.820313 150.027344 212.117188 C 150.285156 211.574219 150.414063 210.773438 150.414063 209.714844 Z M 156.519531 196.367188 L 158.921875 196.367188 L 158.921875 215.953125 L 156.519531 215.953125 Z M 171.855469 215.953125 L 171.855469 214.160156 C 170.957031 215.570313 169.636719 216.273438 167.890625 216.273438 C 166.757813 216.273438 165.71875 215.964844 164.769531 215.339844 C 163.820313 214.71875 163.085938 213.847656 162.5625 212.726563 C 162.042969 211.609375 161.78125 210.328125 161.78125 208.871094 C 161.78125 207.457031 162.019531 206.171875 162.488281 205.019531 C 162.964844 203.863281 163.671875 202.980469 164.613281 202.367188 C 165.558594 201.753906 166.617188 201.441406 167.785156 201.441406 C 168.636719 201.441406 169.398438 201.625 170.066406 201.984375 C 170.734375 202.34375 171.277344 202.816406 171.695313 203.394531 L 171.695313 196.367188 L 174.085938 196.367188 L 174.085938 215.953125 Z M 164.253906 208.871094 C 164.253906 210.691406 164.636719 212.050781 165.402344 212.949219 C 166.167969 213.847656 167.074219 214.296875 168.117188 214.296875 C 169.167969 214.296875 170.058594 213.867188 170.792969 213.007813 C 171.527344 212.152344 171.898438 210.835938 171.898438 209.070313 C 171.898438 207.128906 171.523438 205.707031 170.777344 204.800781 C 170.027344 203.886719 169.105469 203.433594 168.007813 203.433594 C 166.941406 203.433594 166.046875 203.875 165.332031 204.746094 C 164.613281 205.617188 164.253906 206.992188 164.253906 208.871094 Z M 187.128906 214.203125 C 186.234375 214.960938 185.378906 215.492188 184.558594 215.808594 C 183.734375 216.117188 182.847656 216.273438 181.902344 216.273438 C 180.34375 216.273438 179.148438 215.894531 178.308594 215.132813 C 177.476563 214.371094 177.054688 213.394531 177.054688 212.214844 C 177.054688 211.515625 177.210938 210.882813 177.53125 210.308594 C 177.84375 209.734375 178.257813 209.273438 178.769531 208.925781 C 179.285156 208.578125 179.859375 208.316406 180.503906 208.136719 C 180.972656 208.015625 181.683594 207.890625 182.636719 207.777344 C 184.582031 207.542969 186.011719 207.269531 186.929688 206.945313 C 186.9375 206.617188 186.941406 206.410156 186.941406 206.320313 C 186.941406 205.339844 186.714844 204.648438 186.257813 204.25 C 185.648438 203.703125 184.730469 203.433594 183.523438 203.433594 C 182.390625 203.433594 181.558594 203.632813 181.015625 204.027344 C 180.476563 204.425781 180.078125 205.128906 179.820313 206.136719 L 177.472656 205.8125 C 177.683594 204.808594 178.035156 203.992188 178.523438 203.375 C 179.011719 202.753906 179.722656 202.277344 180.648438 201.945313 C 181.574219 201.609375 182.648438 201.441406 183.871094 201.441406 C 185.082031 201.441406 186.0625 201.589844 186.820313 201.871094 C 187.578125 202.160156 188.132813 202.515625 188.492188 202.949219 C 188.847656 203.378906 189.097656 203.921875 189.242188 204.585938 C 189.320313 204.996094 189.359375 205.734375 189.359375 206.800781 L 189.359375 210.007813 C 189.359375 212.246094 189.410156 213.660156 189.515625 214.25 C 189.617188 214.839844 189.820313 215.410156 190.121094 215.953125 L 187.609375 215.953125 C 187.363281 215.457031 187.199219 214.875 187.128906 214.203125 Z M 186.929688 208.832031 C 186.054688 209.191406 184.746094 209.492188 183.003906 209.742188 C 182.011719 209.882813 181.3125 210.042969 180.90625 210.222656 C 180.496094 210.398438 180.175781 210.660156 179.957031 211.003906 C 179.734375 211.347656 179.617188 211.726563 179.617188 212.144531 C 179.617188 212.789063 179.863281 213.324219 180.347656 213.75 C 180.832031 214.175781 181.542969 214.390625 182.476563 214.390625 C 183.402344 214.390625 184.230469 214.1875 184.949219 213.78125 C 185.671875 213.378906 186.203125 212.820313 186.542969 212.117188 C 186.800781 211.574219 186.929688 210.773438 186.929688 209.714844 Z M 192.128906 211.71875 L 194.503906 211.34375 C 194.636719 212.296875 195.011719 213.027344 195.621094 213.535156 C 196.226563 214.042969 197.082031 214.296875 198.179688 214.296875 C 199.285156 214.296875 200.105469 214.070313 200.636719 213.625 C 201.171875 213.171875 201.441406 212.644531 201.441406 212.042969 C 201.441406 211.492188 201.203125 211.070313 200.730469 210.753906 C 200.402344 210.539063 199.582031 210.273438 198.269531 209.941406 C 196.511719 209.496094 195.285156 209.113281 194.605469 208.785156 C 193.925781 208.460938 193.40625 208.007813 193.054688 207.433594 C 192.703125 206.859375 192.523438 206.226563 192.523438 205.535156 C 192.523438 204.898438 192.671875 204.316406 192.964844 203.777344 C 193.25 203.234375 193.648438 202.789063 194.144531 202.433594 C 194.519531 202.160156 195.027344 201.921875 195.671875 201.730469 C 196.320313 201.539063 197.011719 201.441406 197.75 201.441406 C 198.863281 201.441406 199.839844 201.605469 200.683594 201.925781 C 201.527344 202.246094 202.148438 202.679688 202.550781 203.226563 C 202.949219 203.777344 203.222656 204.507813 203.375 205.421875 L 201.027344 205.746094 C 200.917969 205.019531 200.605469 204.449219 200.09375 204.039063 C 199.585938 203.628906 198.859375 203.421875 197.925781 203.421875 C 196.820313 203.421875 196.03125 203.605469 195.5625 203.96875 C 195.089844 204.332031 194.851563 204.761719 194.851563 205.25 C 194.851563 205.566406 194.953125 205.84375 195.148438 206.09375 C 195.34375 206.355469 195.648438 206.5625 196.070313 206.738281 C 196.3125 206.824219 197.015625 207.027344 198.195313 207.347656 C 199.894531 207.804688 201.082031 208.171875 201.75 208.464844 C 202.425781 208.753906 202.953125 209.175781 203.339844 209.730469 C 203.722656 210.28125 203.914063 210.964844 203.914063 211.785156 C 203.914063 212.589844 203.675781 213.339844 203.210938 214.050781 C 202.742188 214.757813 202.066406 215.304688 201.183594 215.695313 C 200.304688 216.082031 199.308594 216.273438 198.195313 216.273438 C 196.347656 216.273438 194.941406 215.890625 193.976563 215.125 C 193.007813 214.359375 192.394531 213.222656 192.128906 211.71875 Z M 192.128906 211.71875 "/>
    </g>
    <g clip-path="url(#clip2)" clip-rule="nonzero">
      <path style="fill: none; stroke-width: 2.16; stroke-linecap: butt; stroke-linejoin: miter; stroke-opacity: 1; stroke-miterlimit: 4; stroke: rgb(255, 255, 255);" d="M 344.570313 361.132813 L 344.570313 557.03125 L 418.476563 557.03125 C 431.484375 557.03125 441.40625 556.40625 448.242188 555.15625 C 457.890625 553.554688 465.9375 550.507813 472.460938 545.976563 C 478.945313 541.523438 484.179688 535.195313 488.164063 527.109375 C 492.109375 518.984375 494.101563 510.117188 494.101563 500.390625 C 494.101563 483.75 488.789063 469.609375 478.203125 458.046875 C 467.578125 446.5625 448.4375 440.78125 420.742188 440.78125 L 370.507813 440.78125 L 370.507813 361.132813 Z M 370.507813 463.90625 L 421.171875 463.90625 C 437.890625 463.90625 449.804688 466.992188 456.835938 473.242188 C 463.867188 479.492188 467.34375 488.242188 467.34375 499.570313 C 467.34375 507.773438 465.3125 514.804688 461.171875 520.625 C 456.992188 526.484375 451.5625 530.3125 444.804688 532.1875 C 440.390625 533.320313 432.382813 533.90625 420.625 533.90625 L 370.507813 533.90625 Z M 655.625 557.03125 L 681.5625 557.03125 L 681.5625 443.828125 C 681.5625 424.179688 679.335938 408.554688 674.882813 396.953125 C 670.390625 385.351563 662.382813 375.976563 650.742188 368.710938 C 639.101563 361.445313 623.867188 357.8125 605 357.8125 C 586.679688 357.8125 571.601563 360.976563 560 367.304688 C 548.320313 373.59375 539.960938 382.773438 535 394.765625 C 529.960938 406.757813 527.5 423.085938 527.5 443.828125 L 527.5 557.03125 L 553.4375 557.03125 L 553.4375 443.984375 C 553.4375 426.953125 555 414.414063 558.164063 406.40625 C 561.289063 398.320313 566.796875 392.109375 574.453125 387.734375 C 582.148438 383.359375 591.601563 381.171875 602.734375 381.171875 C 621.796875 381.171875 635.351563 385.507813 643.476563 394.179688 C 651.5625 402.773438 655.625 419.375 655.625 443.984375 Z M 864.453125 429.84375 L 890.390625 423.28125 C 884.960938 402.03125 875.15625 385.78125 861.054688 374.570313 C 846.914063 363.398438 829.6875 357.8125 809.257813 357.8125 C 788.164063 357.8125 771.015625 362.109375 757.773438 370.664063 C 744.570313 379.296875 734.453125 391.757813 727.578125 408.046875 C 720.703125 424.375 717.226563 441.875 717.226563 460.585938 C 717.226563 480.9375 721.09375 498.75 728.90625 513.945313 C 736.71875 529.101563 747.773438 540.664063 762.1875 548.554688 C 776.5625 556.445313 792.382813 560.351563 809.6875 560.351563 C 829.296875 560.351563 845.742188 555.390625 859.101563 545.390625 C 872.460938 535.390625 881.757813 521.40625 887.03125 503.320313 L 861.523438 497.265625 C 856.953125 511.5625 850.390625 521.914063 841.71875 528.4375 C 833.125 534.960938 822.265625 538.203125 809.140625 538.203125 C 794.0625 538.203125 781.523438 534.570313 771.40625 527.382813 C 761.289063 520.117188 754.179688 510.46875 750.117188 498.28125 C 746.015625 486.171875 743.945313 473.632813 743.945313 460.703125 C 743.945313 444.023438 746.367188 429.53125 751.210938 417.070313 C 756.09375 404.648438 763.59375 395.351563 773.867188 389.179688 C 784.140625 383.046875 795.234375 380 807.148438 380 C 821.679688 380 833.945313 384.179688 844.023438 392.539063 C 854.101563 400.9375 860.898438 413.359375 864.453125 429.84375 Z M 997.539063 361.132813 L 997.539063 557.03125 L 1036.5625 557.03125 L 1082.890625 418.320313 C 1087.1875 405.429688 1090.3125 395.78125 1092.226563 389.335938 C 1094.492188 396.445313 1097.929688 406.953125 1102.695313 420.742188 L 1149.570313 557.03125 L 1184.453125 557.03125 L 1184.453125 361.132813 L 1159.453125 361.132813 L 1159.453125 525.117188 L 1102.539063 361.132813 L 1079.140625 361.132813 L 1022.5 527.890625 L 1022.5 361.132813 Z M 1223.320313 557.03125 L 1247.382813 557.03125 L 1247.382813 529.335938 L 1223.320313 529.335938 Z M 1223.320313 503.046875 L 1247.382813 503.046875 L 1247.382813 361.132813 L 1223.320313 361.132813 Z M 1284.023438 361.132813 L 1284.023438 503.046875 L 1305.625 503.046875 L 1305.625 482.890625 C 1316.09375 498.476563 1331.132813 506.25 1350.78125 506.25 C 1359.375 506.25 1367.1875 504.726563 1374.375 501.679688 C 1381.5625 498.554688 1386.914063 494.53125 1390.46875 489.53125 C 1394.0625 484.570313 1396.523438 478.632813 1397.96875 471.796875 C 1398.867188 467.304688 1399.296875 459.53125 1399.296875 448.398438 L 1399.296875 361.132813 L 1375.234375 361.132813 L 1375.234375 447.5 C 1375.234375 457.226563 1374.296875 464.570313 1372.460938 469.453125 C 1370.585938 474.296875 1367.265625 478.164063 1362.5 481.054688 C 1357.734375 483.984375 1352.148438 485.429688 1345.703125 485.429688 C 1335.46875 485.429688 1326.640625 482.148438 1319.179688 475.664063 C 1311.757813 469.140625 1308.046875 456.835938 1308.046875 438.632813 L 1308.046875 361.132813 Z M 1528.789063 378.671875 C 1519.84375 371.09375 1511.25 365.742188 1503.046875 362.617188 C 1494.804688 359.492188 1485.9375 357.96875 1476.523438 357.96875 C 1460.9375 357.96875 1448.984375 361.757813 1440.585938 369.375 C 1432.226563 376.992188 1428.046875 386.71875 1428.046875 398.554688 C 1428.046875 405.507813 1429.609375 411.875 1432.773438 417.617188 C 1435.9375 423.359375 1440.078125 427.96875 1445.195313 431.445313 C 1450.351563 434.882813 1456.09375 437.539063 1462.5 439.335938 C 1467.226563 440.546875 1474.335938 441.796875 1483.867188 442.929688 C 1503.28125 445.234375 1517.617188 447.96875 1526.757813 451.210938 C 1526.875 454.492188 1526.914063 456.601563 1526.914063 457.460938 C 1526.914063 467.265625 1524.648438 474.21875 1520.078125 478.164063 C 1513.945313 483.632813 1504.804688 486.328125 1492.695313 486.328125 C 1481.40625 486.328125 1473.046875 484.375 1467.617188 480.390625 C 1462.226563 476.445313 1458.28125 469.414063 1455.664063 459.335938 L 1432.1875 462.578125 C 1434.335938 472.617188 1437.851563 480.78125 1442.734375 486.914063 C 1447.617188 493.125 1454.726563 497.929688 1463.984375 501.25 C 1473.242188 504.570313 1483.945313 506.25 1496.171875 506.25 C 1508.320313 506.25 1518.125 504.804688 1525.664063 501.992188 C 1533.242188 499.101563 1538.828125 495.546875 1542.421875 491.210938 C 1545.976563 486.875 1548.4375 481.445313 1549.882813 474.84375 C 1550.664063 470.742188 1551.09375 463.359375 1551.09375 452.695313 L 1551.09375 420.625 C 1551.09375 398.242188 1551.601563 384.101563 1552.617188 378.203125 C 1553.632813 372.265625 1555.703125 366.5625 1558.710938 361.132813 L 1533.554688 361.132813 C 1531.09375 366.132813 1529.453125 371.953125 1528.789063 378.671875 Z M 1526.757813 432.382813 C 1518.007813 428.789063 1504.921875 425.78125 1487.5 423.28125 C 1477.617188 421.835938 1470.585938 420.273438 1466.523438 418.476563 C 1462.421875 416.679688 1459.21875 414.101563 1457.03125 410.625 C 1454.804688 407.226563 1453.671875 403.4375 1453.671875 399.21875 C 1453.671875 392.8125 1456.132813 387.460938 1460.976563 383.164063 C 1465.78125 378.945313 1472.929688 376.796875 1482.265625 376.796875 C 1491.523438 376.796875 1499.765625 378.789063 1506.992188 382.851563 C 1514.179688 386.914063 1519.53125 392.5 1522.890625 399.492188 C 1525.507813 404.921875 1526.757813 412.96875 1526.757813 423.554688 Z M 1578.75 403.515625 L 1602.539063 407.265625 C 1603.867188 397.734375 1607.578125 390.429688 1613.710938 385.3125 C 1619.765625 380.273438 1628.28125 377.695313 1639.296875 377.695313 C 1650.3125 377.695313 1658.515625 380 1663.867188 384.453125 C 1669.21875 388.984375 1671.875 394.257813 1671.875 400.273438 C 1671.875 405.742188 1669.53125 410 1664.765625 413.125 C 1661.484375 415.273438 1653.28125 417.96875 1640.195313 421.25 C 1622.578125 425.742188 1610.3125 429.570313 1603.515625 432.851563 C 1596.71875 436.09375 1591.523438 440.585938 1588.007813 446.328125 C 1584.53125 452.109375 1582.734375 458.4375 1582.734375 465.351563 C 1582.734375 471.679688 1584.179688 477.539063 1587.109375 482.929688 C 1590 488.359375 1593.945313 492.8125 1598.90625 496.367188 C 1602.65625 499.101563 1607.773438 501.484375 1614.21875 503.398438 C 1620.664063 505.3125 1627.617188 506.25 1635 506.25 C 1646.132813 506.25 1655.898438 504.609375 1664.335938 501.445313 C 1672.773438 498.242188 1678.945313 493.90625 1682.96875 488.4375 C 1686.992188 482.929688 1689.726563 475.625 1691.210938 466.445313 L 1667.734375 463.203125 C 1666.640625 470.507813 1663.554688 476.210938 1658.4375 480.3125 C 1653.320313 484.414063 1646.09375 486.484375 1636.71875 486.484375 C 1625.703125 486.484375 1617.8125 484.648438 1613.085938 481.015625 C 1608.359375 477.34375 1605.976563 473.085938 1605.976563 468.203125 C 1605.976563 465.039063 1606.992188 462.265625 1608.945313 459.765625 C 1610.898438 457.148438 1613.984375 455.039063 1618.164063 453.320313 C 1620.585938 452.460938 1627.65625 450.390625 1639.414063 447.226563 C 1656.445313 442.65625 1668.28125 438.945313 1675 436.054688 C 1681.757813 433.164063 1687.03125 428.90625 1690.859375 423.398438 C 1694.6875 417.890625 1696.601563 411.054688 1696.601563 402.851563 C 1696.601563 394.804688 1694.21875 387.265625 1689.570313 380.15625 C 1684.882813 373.085938 1678.125 367.617188 1669.335938 363.75 C 1660.546875 359.882813 1650.546875 357.96875 1639.414063 357.96875 C 1620.9375 357.96875 1606.914063 361.796875 1597.226563 369.453125 C 1587.578125 377.109375 1581.40625 388.476563 1578.75 403.515625 Z M 2.070313 55.46875 L 2.070313 251.328125 L 75.9375 251.328125 C 88.945313 251.328125 98.90625 250.703125 105.742188 249.453125 C 115.351563 247.851563 123.4375 244.804688 129.960938 240.3125 C 136.40625 235.820313 141.679688 229.492188 145.625 221.40625 C 149.609375 213.28125 151.5625 204.414063 151.5625 194.6875 C 151.5625 178.046875 146.289063 163.90625 135.703125 152.382813 C 125.078125 140.859375 105.898438 135.078125 78.242188 135.078125 L 27.96875 135.078125 L 27.96875 55.46875 Z M 27.96875 158.203125 L 78.632813 158.203125 C 95.390625 158.203125 107.265625 161.328125 114.296875 167.539063 C 121.328125 173.789063 124.84375 182.578125 124.84375 193.867188 C 124.84375 202.070313 122.773438 209.101563 118.632813 214.960938 C 114.492188 220.78125 109.0625 224.609375 102.265625 226.484375 C 97.890625 227.617188 89.84375 228.203125 78.085938 228.203125 L 27.96875 228.203125 Z M 172.539063 126.40625 C 172.539063 152.695313 179.84375 172.148438 194.492188 184.804688 C 206.640625 195.273438 221.523438 200.585938 239.0625 200.585938 C 258.59375 200.585938 274.570313 194.179688 286.914063 181.367188 C 299.335938 168.59375 305.46875 150.9375 305.46875 128.4375 C 305.46875 110.15625 302.734375 95.78125 297.265625 85.3125 C 291.796875 74.84375 283.828125 66.71875 273.359375 60.9375 C 262.890625 55.15625 251.484375 52.265625 239.0625 52.265625 C 219.257813 52.265625 203.203125 58.59375 190.9375 71.367188 C 178.671875 84.101563 172.539063 102.421875 172.539063 126.40625 Z M 197.265625 126.40625 C 197.265625 108.242188 201.210938 94.648438 209.179688 85.585938 C 217.109375 76.523438 227.070313 72.03125 239.0625 72.03125 C 251.015625 72.03125 260.976563 76.5625 268.90625 85.664063 C 276.796875 94.726563 280.78125 108.59375 280.78125 127.1875 C 280.78125 144.765625 276.796875 158.085938 268.828125 167.109375 C 260.820313 176.132813 250.9375 180.664063 239.0625 180.664063 C 227.070313 180.664063 217.109375 176.132813 209.179688 167.148438 C 201.210938 158.164063 197.265625 144.570313 197.265625 126.40625 Z M 426.289063 107.460938 L 449.921875 104.335938 C 447.34375 88.046875 440.742188 75.3125 430.078125 66.09375 C 419.453125 56.875 406.367188 52.265625 390.859375 52.265625 C 371.484375 52.265625 355.820313 58.59375 344.0625 71.289063 C 332.265625 83.945313 326.328125 102.148438 326.328125 125.859375 C 326.328125 141.210938 328.867188 154.609375 333.945313 166.09375 C 339.0625 177.578125 346.757813 186.210938 357.148438 191.953125 C 367.5 197.695313 378.828125 200.585938 390.976563 200.585938 C 406.40625 200.585938 419.023438 196.640625 428.789063 188.867188 C 438.59375 181.054688 444.882813 170 447.695313 155.664063 L 424.296875 152.03125 C 422.03125 161.601563 418.125 168.75 412.460938 173.59375 C 406.835938 178.359375 399.960938 180.78125 391.953125 180.78125 C 379.804688 180.78125 369.960938 176.445313 362.382813 167.734375 C 354.84375 159.0625 351.054688 145.351563 351.054688 126.5625 C 351.054688 107.5 354.6875 93.632813 362.03125 84.960938 C 369.335938 76.328125 378.867188 72.03125 390.625 72.03125 C 400.078125 72.03125 407.929688 74.921875 414.257813 80.742188 C 420.585938 86.523438 424.609375 95.390625 426.289063 107.460938 Z M 370.546875 37.578125 L 377.5 61.210938 L 395.429688 61.210938 L 390.976563 46.914063 C 398.554688 46.015625 404.257813 43.710938 408.085938 39.921875 C 411.914063 36.132813 413.828125 31.914063 413.828125 27.265625 C 413.828125 20.625 410.664063 14.6875 404.21875 9.570313 C 397.773438 4.492188 388.164063 1.914063 375.195313 1.914063 C 367.929688 1.914063 361.523438 2.421875 355.976563 3.515625 L 357.460938 19.140625 C 363.164063 18.789063 367.382813 18.59375 370 18.59375 C 378.398438 18.59375 384.296875 19.765625 387.65625 22.070313 C 390.234375 23.867188 391.523438 26.054688 391.523438 28.632813 C 391.523438 30.234375 391.054688 31.640625 390 32.890625 C 388.984375 34.179688 387.070313 35.195313 384.335938 36.132813 C 381.5625 36.992188 376.953125 37.5 370.546875 37.578125 Z M 461.5625 126.40625 C 461.5625 152.695313 468.828125 172.148438 483.476563 184.804688 C 495.664063 195.273438 510.546875 200.585938 528.085938 200.585938 C 547.617188 200.585938 563.554688 194.179688 575.9375 181.367188 C 588.320313 168.59375 594.492188 150.9375 594.492188 128.4375 C 594.492188 110.15625 591.757813 95.78125 586.289063 85.3125 C 580.820313 74.84375 572.8125 66.71875 562.382813 60.9375 C 551.875 55.15625 540.507813 52.265625 528.085938 52.265625 C 508.242188 52.265625 492.1875 58.59375 479.921875 71.367188 C 467.65625 84.101563 461.5625 102.421875 461.5625 126.40625 Z M 486.25 126.40625 C 486.25 108.242188 490.234375 94.648438 498.164063 85.585938 C 506.09375 76.523438 516.09375 72.03125 528.085938 72.03125 C 540.039063 72.03125 549.960938 76.5625 557.929688 85.664063 C 565.78125 94.726563 569.765625 108.59375 569.765625 127.1875 C 569.765625 144.765625 565.78125 158.085938 557.8125 167.109375 C 549.84375 176.132813 539.960938 180.664063 528.085938 180.664063 C 516.09375 180.664063 506.09375 176.132813 498.164063 167.148438 C 490.234375 158.164063 486.25 144.570313 486.25 126.40625 Z M 613.085938 97.8125 L 636.835938 101.5625 C 638.164063 92.03125 641.914063 84.726563 648.046875 79.648438 C 654.101563 74.570313 662.617188 72.03125 673.59375 72.03125 C 684.648438 72.03125 692.851563 74.296875 698.203125 78.75 C 703.515625 83.28125 706.210938 88.554688 706.210938 94.570313 C 706.210938 100.078125 703.867188 104.296875 699.101563 107.460938 C 695.820313 109.609375 687.617188 112.265625 674.53125 115.585938 C 656.914063 120.039063 644.648438 123.867188 637.851563 127.148438 C 631.054688 130.390625 625.859375 134.921875 622.34375 140.664063 C 618.828125 146.40625 617.070313 152.734375 617.070313 159.648438 C 617.070313 166.015625 618.515625 171.835938 621.445313 177.226563 C 624.296875 182.65625 628.28125 187.109375 633.242188 190.664063 C 636.992188 193.398438 642.109375 195.78125 648.515625 197.695313 C 655 199.609375 661.953125 200.585938 669.335938 200.585938 C 680.46875 200.585938 690.195313 198.945313 698.632813 195.742188 C 707.070313 192.539063 713.28125 188.203125 717.304688 182.734375 C 721.328125 177.226563 724.0625 169.921875 725.546875 160.78125 L 702.070313 157.539063 C 700.976563 164.804688 697.890625 170.507813 692.773438 174.609375 C 687.65625 178.710938 680.390625 180.78125 671.054688 180.78125 C 660.039063 180.78125 652.148438 178.945313 647.421875 175.3125 C 642.695313 171.679688 640.3125 167.382813 640.3125 162.5 C 640.3125 159.335938 641.328125 156.5625 643.28125 154.0625 C 645.234375 151.445313 648.28125 149.375 652.5 147.617188 C 654.921875 146.757813 661.992188 144.726563 673.75 141.523438 C 690.742188 136.953125 702.617188 133.28125 709.335938 130.351563 C 716.054688 127.460938 721.367188 123.242188 725.195313 117.695313 C 729.023438 112.1875 730.9375 105.351563 730.9375 97.148438 C 730.9375 89.101563 728.554688 81.601563 723.90625 74.492188 C 719.21875 67.421875 712.460938 61.953125 703.671875 58.046875 C 694.882813 54.179688 684.882813 52.265625 673.75 52.265625 C 655.273438 52.265625 641.25 56.09375 631.5625 63.75 C 621.914063 71.40625 615.742188 82.773438 613.085938 97.8125 Z M 927.578125 55.46875 L 927.578125 73.398438 C 918.59375 59.296875 905.390625 52.265625 887.929688 52.265625 C 876.601563 52.265625 866.210938 55.351563 856.71875 61.601563 C 847.226563 67.8125 839.882813 76.523438 834.648438 87.734375 C 829.453125 98.90625 826.835938 111.71875 826.835938 126.289063 C 826.835938 140.429688 829.21875 153.28125 833.90625 164.804688 C 838.671875 176.367188 845.742188 185.195313 855.15625 191.328125 C 864.609375 197.460938 875.195313 200.585938 886.875 200.585938 C 895.390625 200.585938 903.007813 198.75 909.648438 195.15625 C 916.367188 191.5625 921.796875 186.835938 925.976563 181.054688 L 925.976563 251.328125 L 949.882813 251.328125 L 949.882813 55.46875 Z M 851.5625 126.289063 C 851.5625 108.085938 855.390625 94.492188 863.046875 85.507813 C 870.703125 76.523438 879.765625 72.03125 890.195313 72.03125 C 900.664063 72.03125 909.609375 76.328125 916.953125 84.921875 C 924.296875 93.476563 928.007813 106.640625 928.007813 124.296875 C 928.007813 143.710938 924.257813 157.929688 916.796875 166.992188 C 909.296875 176.132813 900.078125 180.664063 889.101563 180.664063 C 878.4375 180.664063 869.492188 176.25 862.34375 167.539063 C 855.15625 158.828125 851.5625 145.078125 851.5625 126.289063 Z M 1084.84375 101.171875 L 1109.6875 98.085938 C 1105.78125 83.554688 1098.515625 72.304688 1087.929688 64.257813 C 1077.304688 56.289063 1063.75 52.265625 1047.304688 52.265625 C 1026.5625 52.265625 1010.078125 58.632813 997.96875 71.40625 C 985.78125 84.179688 979.726563 102.109375 979.726563 125.195313 C 979.726563 149.101563 985.859375 167.617188 998.125 180.78125 C 1010.46875 193.945313 1026.367188 200.585938 1045.976563 200.585938 C 1064.960938 200.585938 1080.46875 194.101563 1092.460938 181.210938 C 1104.492188 168.28125 1110.507813 150.078125 1110.507813 126.679688 C 1110.507813 125.234375 1110.46875 123.085938 1110.390625 120.273438 L 1004.570313 120.273438 C 1005.429688 104.648438 1009.84375 92.734375 1017.8125 84.453125 C 1025.742188 76.171875 1035.585938 72.03125 1047.421875 72.03125 C 1056.25 72.03125 1063.75 74.335938 1070 78.984375 C 1076.25 83.59375 1081.171875 90.976563 1084.84375 101.171875 Z M 1005.898438 140.039063 L 1085.117188 140.039063 C 1084.0625 151.953125 1081.015625 160.9375 1076.015625 166.875 C 1068.359375 176.132813 1058.4375 180.78125 1046.25 180.78125 C 1035.234375 180.78125 1025.898438 177.070313 1018.398438 169.6875 C 1010.859375 162.304688 1006.71875 152.421875 1005.898438 140.039063 Z M 1358.75 124.140625 L 1384.6875 117.578125 C 1379.257813 96.328125 1369.453125 80.078125 1355.351563 68.867188 C 1341.210938 57.695313 1323.984375 52.148438 1303.554688 52.148438 C 1282.460938 52.148438 1265.3125 56.40625 1252.070313 65 C 1238.828125 73.59375 1228.75 86.054688 1221.875 102.34375 C 1215 118.671875 1211.523438 136.171875 1211.523438 154.882813 C 1211.523438 175.273438 1215.390625 193.046875 1223.203125 208.242188 C 1231.015625 223.4375 1242.070313 234.960938 1256.484375 242.851563 C 1270.859375 250.742188 1286.679688 254.648438 1303.984375 254.648438 C 1323.59375 254.648438 1340.039063 249.6875 1353.398438 239.6875 C 1366.757813 229.726563 1376.054688 215.703125 1381.328125 197.617188 L 1355.820313 191.601563 C 1351.25 205.859375 1344.6875 216.210938 1336.015625 222.734375 C 1327.421875 229.257813 1316.5625 232.5 1303.4375 232.5 C 1288.359375 232.5 1275.820313 228.90625 1265.703125 221.679688 C 1255.585938 214.453125 1248.476563 204.765625 1244.414063 192.578125 C 1240.3125 180.46875 1238.242188 167.929688 1238.242188 155 C 1238.242188 138.320313 1240.664063 123.828125 1245.507813 111.367188 C 1250.390625 98.984375 1257.890625 89.648438 1268.164063 83.515625 C 1278.4375 77.34375 1289.492188 74.296875 1301.445313 74.296875 C 1315.976563 74.296875 1328.242188 78.476563 1338.320313 86.835938 C 1348.398438 95.234375 1355.195313 107.695313 1358.75 124.140625 Z M 1506.132813 72.96875 C 1497.1875 65.390625 1488.632813 60.078125 1480.429688 56.914063 C 1472.148438 53.828125 1463.320313 52.265625 1453.867188 52.265625 C 1438.28125 52.265625 1426.328125 56.054688 1417.929688 63.671875 C 1409.609375 71.289063 1405.390625 81.054688 1405.390625 92.851563 C 1405.390625 99.84375 1406.953125 106.171875 1410.15625 111.914063 C 1413.28125 117.65625 1417.421875 122.265625 1422.539063 125.742188 C 1427.695313 129.21875 1433.4375 131.835938 1439.882813 133.632813 C 1444.570313 134.84375 1451.679688 136.09375 1461.210938 137.226563 C 1480.664063 139.570313 1494.960938 142.304688 1504.140625 145.546875 C 1504.21875 148.828125 1504.257813 150.898438 1504.257813 151.796875 C 1504.257813 161.601563 1501.992188 168.515625 1497.421875 172.5 C 1491.328125 177.96875 1482.148438 180.664063 1470.078125 180.664063 C 1458.75 180.664063 1450.390625 178.671875 1445 174.726563 C 1439.609375 170.742188 1435.625 163.710938 1433.046875 153.632813 L 1409.53125 156.875 C 1411.679688 166.914063 1415.195313 175.078125 1420.078125 181.25 C 1424.960938 187.460938 1432.070313 192.226563 1441.328125 195.546875 C 1450.585938 198.90625 1461.289063 200.585938 1473.515625 200.585938 C 1485.664063 200.585938 1495.46875 199.101563 1503.046875 196.289063 C 1510.625 193.398438 1516.171875 189.84375 1519.765625 185.507813 C 1523.320313 181.210938 1525.78125 175.78125 1527.265625 169.140625 C 1528.046875 165.039063 1528.4375 157.65625 1528.4375 146.992188 L 1528.4375 114.921875 C 1528.4375 92.539063 1528.945313 78.398438 1530 72.5 C 1530.976563 66.601563 1533.046875 60.898438 1536.054688 55.46875 L 1510.9375 55.46875 C 1508.476563 60.429688 1506.835938 66.25 1506.132813 72.96875 Z M 1504.140625 126.679688 C 1495.390625 123.085938 1482.304688 120.078125 1464.882813 117.578125 C 1454.960938 116.171875 1447.929688 114.570313 1443.90625 112.773438 C 1439.765625 111.015625 1436.601563 108.398438 1434.414063 104.960938 C 1432.148438 101.523438 1431.015625 97.734375 1431.015625 93.554688 C 1431.015625 87.109375 1433.476563 81.757813 1438.320313 77.5 C 1443.164063 73.242188 1450.273438 71.09375 1459.609375 71.09375 C 1468.867188 71.09375 1477.148438 73.125 1484.335938 77.1875 C 1491.5625 81.210938 1496.875 86.796875 1500.273438 93.828125 C 1502.851563 99.257813 1504.140625 107.265625 1504.140625 117.851563 Z M 1565.195313 251.328125 L 1589.21875 251.328125 L 1589.21875 55.46875 L 1565.195313 55.46875 Z M 1718.554688 55.46875 L 1718.554688 73.398438 C 1709.570313 59.296875 1696.367188 52.265625 1678.90625 52.265625 C 1667.578125 52.265625 1657.1875 55.351563 1647.695313 61.601563 C 1638.203125 67.8125 1630.859375 76.523438 1625.625 87.734375 C 1620.429688 98.90625 1617.8125 111.71875 1617.8125 126.289063 C 1617.8125 140.429688 1620.195313 153.28125 1624.882813 164.804688 C 1629.648438 176.367188 1636.71875 185.195313 1646.132813 191.328125 C 1655.585938 197.460938 1666.171875 200.585938 1677.851563 200.585938 C 1686.367188 200.585938 1693.984375 198.75 1700.664063 195.15625 C 1707.34375 191.5625 1712.773438 186.835938 1716.953125 181.054688 L 1716.953125 251.328125 L 1740.859375 251.328125 L 1740.859375 55.46875 Z M 1642.539063 126.289063 C 1642.539063 108.085938 1646.367188 94.492188 1654.023438 85.507813 C 1661.679688 76.523438 1670.742188 72.03125 1681.171875 72.03125 C 1691.679688 72.03125 1700.585938 76.328125 1707.929688 84.921875 C 1715.273438 93.476563 1718.984375 106.640625 1718.984375 124.296875 C 1718.984375 143.710938 1715.234375 157.929688 1707.773438 166.992188 C 1700.273438 176.132813 1691.054688 180.664063 1680.078125 180.664063 C 1669.414063 180.664063 1660.46875 176.25 1653.320313 167.539063 C 1646.132813 158.828125 1642.539063 145.078125 1642.539063 126.289063 Z M 1871.289063 72.96875 C 1862.34375 65.390625 1853.789063 60.078125 1845.585938 56.914063 C 1837.34375 53.828125 1828.476563 52.265625 1819.023438 52.265625 C 1803.4375 52.265625 1791.484375 56.054688 1783.085938 63.671875 C 1774.765625 71.289063 1770.546875 81.054688 1770.546875 92.851563 C 1770.546875 99.84375 1772.109375 106.171875 1775.3125 111.914063 C 1778.4375 117.65625 1782.578125 122.265625 1787.695313 125.742188 C 1792.851563 129.21875 1798.59375 131.835938 1805.039063 133.632813 C 1809.726563 134.84375 1816.835938 136.09375 1826.367188 137.226563 C 1845.820313 139.570313 1860.117188 142.304688 1869.296875 145.546875 C 1869.375 148.828125 1869.414063 150.898438 1869.414063 151.796875 C 1869.414063 161.601563 1867.148438 168.515625 1862.578125 172.5 C 1856.484375 177.96875 1847.304688 180.664063 1835.234375 180.664063 C 1823.90625 180.664063 1815.585938 178.671875 1810.15625 174.726563 C 1804.765625 170.742188 1800.78125 163.710938 1798.203125 153.632813 L 1774.726563 156.875 C 1776.835938 166.914063 1780.351563 175.078125 1785.234375 181.25 C 1790.117188 187.460938 1797.226563 192.226563 1806.484375 195.546875 C 1815.742188 198.90625 1826.484375 200.585938 1838.710938 200.585938 C 1850.820313 200.585938 1860.625 199.101563 1868.203125 196.289063 C 1875.78125 193.398438 1881.328125 189.84375 1884.921875 185.507813 C 1888.476563 181.210938 1890.976563 175.78125 1892.421875 169.140625 C 1893.203125 165.039063 1893.59375 157.65625 1893.59375 146.992188 L 1893.59375 114.921875 C 1893.59375 92.539063 1894.101563 78.398438 1895.15625 72.5 C 1896.171875 66.601563 1898.203125 60.898438 1901.210938 55.46875 L 1876.09375 55.46875 C 1873.632813 60.429688 1871.992188 66.25 1871.289063 72.96875 Z M 1869.296875 126.679688 C 1860.546875 123.085938 1847.460938 120.078125 1830.039063 117.578125 C 1820.117188 116.171875 1813.125 114.570313 1809.0625 112.773438 C 1804.960938 111.015625 1801.757813 108.398438 1799.570313 104.960938 C 1797.34375 101.523438 1796.171875 97.734375 1796.171875 93.554688 C 1796.171875 87.109375 1798.632813 81.757813 1803.476563 77.5 C 1808.320313 73.242188 1815.429688 71.09375 1824.765625 71.09375 C 1834.023438 71.09375 1842.304688 73.125 1849.492188 77.1875 C 1856.71875 81.210938 1862.03125 86.796875 1865.429688 93.828125 C 1868.007813 99.257813 1869.296875 107.265625 1869.296875 117.851563 Z M 1921.289063 97.8125 L 1945.039063 101.5625 C 1946.367188 92.03125 1950.117188 84.726563 1956.210938 79.648438 C 1962.265625 74.570313 1970.820313 72.03125 1981.796875 72.03125 C 1992.851563 72.03125 2001.054688 74.296875 2006.367188 78.75 C 2011.71875 83.28125 2014.414063 88.554688 2014.414063 94.570313 C 2014.414063 100.078125 2012.03125 104.296875 2007.304688 107.460938 C 2004.023438 109.609375 1995.820313 112.265625 1982.695313 115.585938 C 1965.117188 120.039063 1952.851563 123.867188 1946.054688 127.148438 C 1939.257813 130.390625 1934.0625 134.921875 1930.546875 140.664063 C 1927.03125 146.40625 1925.234375 152.734375 1925.234375 159.648438 C 1925.234375 166.015625 1926.71875 171.835938 1929.648438 177.226563 C 1932.5 182.65625 1936.484375 187.109375 1941.445313 190.664063 C 1945.195313 193.398438 1950.273438 195.78125 1956.71875 197.695313 C 1963.203125 199.609375 1970.117188 200.585938 1977.5 200.585938 C 1988.632813 200.585938 1998.398438 198.945313 2006.835938 195.742188 C 2015.273438 192.539063 2021.484375 188.203125 2025.507813 182.734375 C 2029.492188 177.226563 2032.226563 169.921875 2033.75 160.78125 L 2010.273438 157.539063 C 2009.179688 164.804688 2006.054688 170.507813 2000.9375 174.609375 C 1995.859375 178.710938 1988.59375 180.78125 1979.257813 180.78125 C 1968.203125 180.78125 1960.3125 178.945313 1955.625 175.3125 C 1950.898438 171.679688 1948.515625 167.382813 1948.515625 162.5 C 1948.515625 159.335938 1949.53125 156.5625 1951.484375 154.0625 C 1953.4375 151.445313 1956.484375 149.375 1960.703125 147.617188 C 1963.125 146.757813 1970.15625 144.726563 1981.953125 141.523438 C 1998.945313 136.953125 2010.820313 133.28125 2017.5 130.351563 C 2024.257813 127.460938 2029.53125 123.242188 2033.398438 117.695313 C 2037.226563 112.1875 2039.140625 105.351563 2039.140625 97.148438 C 2039.140625 89.101563 2036.757813 81.601563 2032.109375 74.492188 C 2027.421875 67.421875 2020.664063 61.953125 2011.835938 58.046875 C 2003.046875 54.179688 1993.085938 52.265625 1981.953125 52.265625 C 1963.476563 52.265625 1949.414063 56.09375 1939.765625 63.75 C 1930.078125 71.40625 1923.945313 82.773438 1921.289063 97.8125 Z M 1921.289063 97.8125 " transform="matrix(0.1,0,0,-0.1,0,221.5)"/>
    </g>
  </g>
</svg>